<svg width="47" height="44" viewBox="0 0 47 44" fill="none" xmlns="http://www.w3.org/2000/svg">
<path d="M0.00026072 16.4707C-0.00621605 16.8423 0.108114 17.207 0.328092 17.5164C0.54807 17.8258 0.863305 18.0652 1.232 18.2031L20.0332 25.2444L27.5548 42.8469C27.7001 43.1874 27.9511 43.4792 28.2754 43.6848C28.5997 43.8903 28.9824 44.0001 29.374 44H29.4053C29.802 43.9942 30.1873 43.8757 30.5104 43.6603C30.8335 43.4449 31.0792 43.1427 31.2148 42.7937L46.8808 2.46315C47.009 2.13505 47.0344 1.77948 46.954 1.43831C46.8736 1.09714 46.6908 0.78458 46.427 0.537441C46.1632 0.290301 45.8295 0.118874 45.4651 0.0433477C45.1007 -0.0321782 44.7209 -0.00865724 44.3703 0.11114L1.28879 14.7768C0.915871 14.9041 0.593017 15.1344 0.362935 15.4372C0.132852 15.7399 0.00638453 16.101 0.00026072 16.4725V16.4707Z" fill="#73F85B"/>
</svg>
