<svg width="82" height="31" viewBox="0 0 82 31" fill="none" xmlns="http://www.w3.org/2000/svg">
<path d="M7.06462 0.74699H0V26.6427H7.06462V0.74699Z" fill="black"/>
<path d="M8.34784 0.74699V6.22492H16.4217V19.6708C16.4217 25.6467 19.7017 26.8917 24.4955 26.8917C27.5232 26.8917 28.7848 26.3937 28.7848 26.3937V21.1647C28.7848 21.1647 28.0278 21.4137 26.514 21.4137C24.2432 21.4137 23.4863 20.6667 23.4863 18.4258V6.22492H32.0648V0.74699H8.34784Z" fill="black"/>
<path d="M40.1504 8.71489C40.2514 5.92613 41.9166 4.73094 44.9443 4.73094C47.7197 4.73094 49.2335 5.92613 49.2335 7.9679C49.2335 10.8563 45.0957 11.2049 40.7055 12.3004C36.3658 13.396 32.3289 15.5872 32.3289 20.4178C32.3289 25.1985 35.8612 27.3897 40.655 27.3897C47.3664 27.3897 48.9812 21.6627 48.9812 21.6627H49.2335V26.6427H56.2981V8.96389C56.2981 2.24097 51.252 0 44.9443 0C38.8889 0 33.4895 2.09157 33.0858 8.71489H40.1504ZM49.2335 13.5952C49.2335 17.4298 47.972 22.9077 43.1781 22.9077C40.9074 22.9077 39.4944 21.6627 39.4944 19.6708C39.4944 17.38 41.412 16.2346 43.6827 15.6868C45.7012 15.1888 48.0729 14.641 49.2335 13.5952Z" fill="black"/>
<path d="M58.0465 26.6427H71.4188C78.4835 26.6427 81.7635 24.1527 81.7635 19.1728C81.7635 14.1928 76.9696 13.1968 76.9696 13.1968V12.9478C76.9696 12.9478 81.0065 11.9519 81.0065 7.71891C81.0065 2.98796 77.4742 0.74699 70.6619 0.74699H58.0465V26.6427ZM70.6619 15.6868C73.185 15.6868 74.6989 16.6828 74.6989 18.6748C74.6989 20.6667 73.4373 21.6627 71.1665 21.6627H65.1112V15.6868H70.6619ZM65.1112 11.2049V5.72693H70.6619C72.9327 5.72693 73.9419 6.72292 73.9419 8.4659C73.9419 10.2089 72.6804 11.2049 70.1573 11.2049H65.1112Z" fill="black"/>
<path d="M30.2769 20.4176H82V31H30.2769V20.4176Z" fill="#75FB5E"/>
<path d="M42.4256 29.1979C42.0156 29.1979 41.615 29.145 41.2237 29.0391C40.8324 28.9333 40.5199 28.7995 40.2862 28.6376L40.7387 27.7506C40.966 27.9 41.2375 28.0214 41.5531 28.1147C41.8749 28.2019 42.1904 28.2455 42.4995 28.2455C43.2059 28.2455 43.5588 28.0618 43.5581 27.6946C43.5578 27.5203 43.4661 27.3989 43.283 27.3304C43.1063 27.2619 42.8191 27.1966 42.4216 27.1343C42.0052 27.0721 41.6644 27.0005 41.3994 26.9196C41.1406 26.8386 40.9132 26.6986 40.7173 26.4994C40.5277 26.2939 40.4325 26.0107 40.4318 25.6497C40.4309 25.1766 40.6289 24.8 41.0257 24.5198C41.4289 24.2335 41.971 24.0903 42.6523 24.0903C42.9992 24.0903 43.3462 24.1308 43.6933 24.2117C44.0403 24.2864 44.3244 24.3891 44.5454 24.5198L44.093 25.4069C43.6636 25.1579 43.1808 25.0334 42.6446 25.0334C42.2977 25.0334 42.0329 25.0863 41.8502 25.1921C41.6738 25.2917 41.5857 25.4256 41.586 25.5936C41.5864 25.7804 41.6813 25.9142 41.8707 25.9952C42.0663 26.0699 42.3661 26.1414 42.7699 26.2099C43.1737 26.2722 43.505 26.3437 43.7638 26.4247C44.0226 26.5056 44.2436 26.6425 44.4269 26.8355C44.6165 27.0285 44.7116 27.3024 44.7123 27.6572C44.7132 28.1241 44.509 28.4976 44.0995 28.7777C43.69 29.0578 43.1321 29.1979 42.4256 29.1979Z" fill="black"/>
<path d="M48.9596 28.8617C48.821 28.9738 48.6509 29.0578 48.4491 29.1138C48.2537 29.1699 48.0456 29.1979 47.8248 29.1979C47.2698 29.1979 46.8406 29.0547 46.5372 28.7683C46.2339 28.482 46.0817 28.0649 46.0807 27.5171L46.076 25.1174H45.2434L45.2416 24.1837H46.0742L46.072 23.0445H47.2547L47.2569 24.1837H48.6099L48.6117 25.1174H47.2587L47.2633 27.4891C47.2638 27.7319 47.3241 27.9186 47.4441 28.0494C47.5642 28.1739 47.7378 28.2361 47.9649 28.2361C48.2298 28.2361 48.4505 28.1676 48.6268 28.0307L48.9596 28.8617Z" fill="black"/>
<path d="M55.0042 24.1464L55.0139 29.1325H53.8879L53.8867 28.4976C53.6979 28.7217 53.4617 28.896 53.1781 29.0205C52.8945 29.1387 52.5887 29.1979 52.2607 29.1979C51.5857 29.1979 51.0524 29.0142 50.6606 28.647C50.2751 28.2735 50.0817 27.7226 50.0802 26.9942L50.0747 24.1464H51.2574L51.2626 26.8355C51.2635 27.2837 51.3651 27.6199 51.5674 27.8439C51.7759 28.0618 52.0695 28.1708 52.4479 28.1708C52.8705 28.1708 53.2046 28.0431 53.4501 27.7879C53.7019 27.5265 53.8273 27.153 53.8264 26.6674L53.8215 24.1464H55.0042Z" fill="black"/>
<path d="M61.6866 22.2042L61.7 29.1325H60.5646L60.5633 28.4882C60.3683 28.7248 60.1258 28.9022 59.8358 29.0205C59.5522 29.1387 59.237 29.1979 58.89 29.1979C58.4043 29.1979 57.9658 29.092 57.5743 28.8804C57.1891 28.6688 56.8857 28.37 56.6642 27.984C56.4427 27.5918 56.3314 27.1436 56.3305 26.6394C56.3295 26.1352 56.439 25.6901 56.659 25.3042C56.8791 24.9182 57.1812 24.6194 57.5656 24.4078C57.9563 24.1962 58.3945 24.0903 58.8801 24.0903C59.2145 24.0903 59.5205 24.1464 59.7982 24.2584C60.076 24.3705 60.3129 24.5385 60.5088 24.7626L60.5039 22.2042H61.6866ZM59.03 28.1988C59.3139 28.1988 59.5692 28.1365 59.796 28.012C60.0229 27.8813 60.2023 27.6977 60.3343 27.4611C60.4663 27.2246 60.532 26.9507 60.5314 26.6394C60.5308 26.3282 60.464 26.0543 60.3311 25.8177C60.1982 25.5812 60.0181 25.4007 59.7908 25.2762C59.5634 25.1455 59.3078 25.0801 59.024 25.0801C58.7401 25.0801 58.4848 25.1455 58.258 25.2762C58.0311 25.4007 57.8517 25.5812 57.7197 25.8177C57.5877 26.0543 57.522 26.3282 57.5226 26.6394C57.5232 26.9507 57.59 27.2246 57.7229 27.4611C57.8558 27.6977 58.0359 27.8813 58.2633 28.012C58.4906 28.1365 58.7462 28.1988 59.03 28.1988Z" fill="black"/>
<path d="M63.4267 24.1464H64.6094L64.6191 29.1325H63.4364L63.4267 24.1464ZM64.0212 23.3247C63.8068 23.3247 63.6269 23.2593 63.4815 23.1286C63.3362 22.9916 63.2633 22.8236 63.263 22.6244C63.2626 22.4252 63.3348 22.2602 63.4796 22.1295C63.6244 21.9925 63.8041 21.9241 64.0185 21.9241C64.233 21.9241 64.4129 21.9894 64.5582 22.1201C64.7035 22.2446 64.7764 22.4034 64.7767 22.5963C64.7771 22.8018 64.7049 22.9761 64.5601 23.1192C64.4216 23.2562 64.242 23.3247 64.0212 23.3247Z" fill="black"/>
<path d="M68.6315 29.1979C68.1206 29.1979 67.6599 29.0889 67.2495 28.8711C66.8391 28.6532 66.5168 28.3513 66.2827 27.9653C66.0548 27.5732 65.9404 27.1312 65.9395 26.6394C65.9385 26.1477 66.0512 25.7088 66.2775 25.3229C66.5102 24.9369 66.8313 24.635 67.2409 24.4171C67.6504 24.1993 68.1107 24.0903 68.6216 24.0903C69.1388 24.0903 69.6027 24.1993 70.0131 24.4171C70.4235 24.635 70.7426 24.9369 70.9705 25.3229C71.2046 25.7088 71.3221 26.1477 71.3231 26.6394C71.324 27.1312 71.2082 27.5732 70.9756 27.9653C70.7492 28.3513 70.4313 28.6532 70.0217 28.8711C69.6121 29.0889 69.1487 29.1979 68.6315 29.1979ZM68.6296 28.1988C69.0648 28.1988 69.4241 28.0556 69.7074 27.7692C69.9906 27.4829 70.1318 27.1063 70.1309 26.6394C70.13 26.1726 69.9874 25.796 69.703 25.5096C69.4186 25.2233 69.0588 25.0801 68.6235 25.0801C68.1883 25.0801 67.829 25.2233 67.5457 25.5096C67.2688 25.796 67.1307 26.1726 67.1316 26.6394C67.1325 27.1063 67.272 27.4829 67.5501 27.7692C67.8345 28.0556 68.1943 28.1988 68.6296 28.1988Z" fill="black"/>
</svg>
