<svg width="13" height="21" viewBox="0 0 13 21" fill="none" xmlns="http://www.w3.org/2000/svg">
<path d="M5.13829 2.92993C3.88736 2.93443 2.8686 3.95319 2.8641 5.20412L2.83011 14.6373C2.82233 16.7957 4.56426 18.5376 6.72262 18.5299C8.88098 18.5221 10.6355 16.7676 10.6433 14.6092L10.6714 6.81653C10.6734 6.25771 11.1313 5.79979 11.6901 5.79777C12.2489 5.79576 12.7036 6.2504 12.7016 6.80921L12.6735 14.6019C12.6617 17.883 9.99643 20.5482 6.7153 20.56C3.43418 20.5719 0.788092 17.9258 0.799914 14.6447L0.833903 5.21143C0.842456 2.83774 2.77192 0.908286 5.1456 0.899733C7.51929 0.89118 9.43489 2.80679 9.42634 5.18047L9.39383 14.2036C9.38855 15.6698 8.19486 16.8635 6.7286 16.8688C5.26235 16.8741 4.07723 15.6889 4.08251 14.2227L4.10911 6.84017C4.11113 6.28135 4.56905 5.82343 5.12787 5.82142C5.68668 5.8194 6.14132 6.27404 6.13931 6.83286L6.11271 14.2154C6.11147 14.5589 6.39243 14.8398 6.73592 14.8386C7.07941 14.8374 7.3624 14.5544 7.36364 14.2109L7.39615 5.18779C7.40066 3.93686 6.38922 2.92542 5.13829 2.92993Z" fill="#828282"/>
</svg>
