<svg width="173" height="100" viewBox="0 0 173 100" fill="none" xmlns="http://www.w3.org/2000/svg">
<mask id="mask0_10_173" style="mask-type:luminance" maskUnits="userSpaceOnUse" x="41" y="38" width="91" height="21">
<path d="M131.427 38.8065H41.4714V58.1934H131.427V38.8065Z" fill="white"/>
</mask>
<g mask="url(#mask0_10_173)">
<path fill-rule="evenodd" clip-rule="evenodd" d="M51.0322 42.0526L50.5213 43.677H48.0503C45.2566 43.677 44.5475 42.0351 44.8995 40.9712C45.2993 39.7625 46.2284 39.6329 50.1247 39.0887C50.2063 39.0773 50.2893 39.0657 50.3735 39.0538C51.1716 38.9423 51.8137 39.708 51.5585 40.4723C51.3823 40.9996 51.2063 41.5268 51.0322 42.0526ZM49.0481 50.7099L48.5371 52.3345H46.0661C43.2725 52.3345 42.5634 50.6927 42.9156 49.6288C43.3154 48.4201 44.2444 48.2904 48.1408 47.7461C48.2224 47.7347 48.3053 47.723 48.3896 47.7114C49.1874 47.5998 49.8298 48.3654 49.5743 49.1297C49.3981 49.6572 49.2223 50.1843 49.0481 50.7099Z" fill="#0059D2"/>
<path fill-rule="evenodd" clip-rule="evenodd" d="M44.8986 40.9727C44.7213 42.0105 45.0474 43.6134 47.9395 43.6134H55.3046C56.0426 43.6134 56.5644 44.3361 56.3317 45.0368L55.2327 48.3485C55.0858 48.7912 54.6718 49.09 54.2054 49.09H46.9637C44.5451 49.09 42.7816 47.5263 43.705 44.6437L44.8986 40.9727ZM42.9145 49.63C42.7374 50.6681 43.0633 52.2709 45.9556 52.2709H53.3205C54.0587 52.2709 54.5802 52.9936 54.3478 53.6941L53.2485 57.0061C53.1016 57.4487 52.6878 57.7475 52.2213 57.7475H44.9798C42.561 57.7475 40.7974 56.1836 41.7209 53.3012L42.9145 49.63Z" fill="#35A7FF"/>
<path fill-rule="evenodd" clip-rule="evenodd" d="M116.164 43.8842C115.154 43.8842 114.407 43.157 114.407 42.1467C114.407 41.1569 115.154 40.4294 116.164 40.4294C117.174 40.4294 117.922 41.1569 117.922 42.1467C117.922 43.157 117.174 43.8842 116.164 43.8842ZM115.174 55.9861C114.932 55.9861 114.791 55.8446 114.791 55.6023V45.4601C114.791 45.2176 114.932 45.0763 115.174 45.0763H117.154C117.397 45.0763 117.538 45.2176 117.538 45.4601V55.6023C117.538 55.8446 117.397 55.9861 117.154 55.9861H115.174ZM108.251 44.874C106.251 44.874 105.544 46.1266 105.544 46.1266H105.301V41.4193C105.301 41.1767 105.16 41.0354 104.917 41.0354H102.937C102.695 41.0354 102.574 41.1767 102.574 41.4193V55.6019C102.574 55.8444 102.695 55.9857 102.937 55.9857H104.917C105.16 55.9857 105.301 55.8444 105.301 55.6019V54.8949H105.544C105.544 54.8949 106.251 56.1475 108.251 56.1475C111.059 56.1475 112.716 53.6826 112.716 50.5106C112.716 47.3387 111.059 44.874 108.251 44.874ZM107.524 53.8646C105.948 53.8646 105.16 52.4704 105.16 50.5106C105.16 48.5511 105.948 47.1569 107.524 47.1569C109.12 47.1569 109.867 48.5511 109.867 50.5106C109.867 52.4704 109.12 53.8646 107.524 53.8646ZM60.5395 41.2383H71.6109C71.8535 41.2383 71.995 41.3796 71.995 41.6222V43.4404C71.995 43.683 71.8535 43.8243 71.6109 43.8243H67.5097V55.6029C67.5097 55.8455 67.3684 55.9868 67.1259 55.9868H65.045C64.8025 55.9868 64.6612 55.8455 64.6612 55.6029V43.8243H60.5395C60.2972 43.8243 60.1556 43.683 60.1556 43.4404V41.6222C60.1556 41.3796 60.2972 41.2383 60.5395 41.2383ZM74.5586 55.6014C74.5586 55.8438 74.4375 55.9853 74.195 55.9853H72.2152C71.9726 55.9853 71.8313 55.8438 71.8313 55.6014V45.4593C71.8313 45.2167 71.9726 45.0754 72.2152 45.0754H74.195C74.4375 45.0754 74.5586 45.2167 74.5586 45.4593V46.1662H74.8012C74.8012 46.1662 75.2455 44.8734 76.9023 44.8734H77.9328C78.1751 44.8734 78.3167 45.0147 78.3167 45.2572V47.035C78.3167 47.2775 78.1751 47.4189 77.9328 47.4189H76.9225C75.2658 47.4189 74.5586 48.0856 74.5586 50.0656V55.6014ZM86.9074 45.0771C86.6651 45.0771 86.5236 45.2187 86.5236 45.461V51.9868C86.5236 53.3 85.6548 53.9061 84.685 53.9061C83.7153 53.9061 82.8668 53.3 82.8668 51.9868V45.461C82.8668 45.2187 82.7252 45.0771 82.4829 45.0771H80.5031C80.2605 45.0771 80.1392 45.2187 80.1392 45.461V52.31C80.1392 54.7344 81.5334 56.1891 83.6142 56.1891C85.6751 56.1891 86.2812 54.7547 86.2812 54.7547H86.5236V55.6032C86.5236 55.8457 86.6651 55.987 86.9074 55.987H88.8873C89.1298 55.987 89.2711 55.8457 89.2711 55.6032V45.461C89.2711 45.2187 89.1298 45.0771 88.8873 45.0771H86.9074ZM90.8929 50.4897C90.8929 47.2775 92.7517 44.8734 96.0247 44.8734C99.0955 44.8734 100.914 46.9947 100.914 50.4292V50.8939C100.914 51.1364 100.772 51.2777 100.53 51.2777H93.7012C93.8426 52.9749 94.7923 53.8437 96.166 53.8437C97.4186 53.8437 97.9842 53.0557 98.2065 52.5708C98.3076 52.3688 98.4894 52.288 98.6914 52.389L100.328 53.1162C100.55 53.2375 100.631 53.3993 100.53 53.6214C100.207 54.3688 99.0753 56.1873 96.166 56.1873C92.7315 56.1873 90.8929 53.7427 90.8929 50.4897ZM98.1258 49.3989C98.0247 47.823 97.1157 47.116 96.0044 47.116C94.8731 47.116 93.8426 47.823 93.7012 49.3989H98.1258ZM124.839 55.9857C125.081 55.9857 125.223 55.8444 125.223 55.6019V53.9856C125.223 53.7433 125.081 53.622 124.839 53.622H123.687C123.242 53.622 122.98 53.3594 122.98 52.9148V41.4193C122.98 41.1767 122.838 41.0354 122.596 41.0354H120.617C120.374 41.0354 120.253 41.1767 120.253 41.4193V53.1169C120.253 54.9757 121.243 55.9857 123.101 55.9857H124.839ZM131.426 55.6019C131.426 55.8444 131.285 55.9857 131.042 55.9857H129.304C127.446 55.9857 126.456 54.9757 126.456 53.1169V41.4193C126.456 41.1767 126.577 41.0354 126.82 41.0354H128.8C129.042 41.0354 129.183 41.1767 129.183 41.4193V52.9148C129.183 53.3594 129.446 53.622 129.891 53.622H131.042C131.285 53.622 131.426 53.7433 131.426 53.9856V55.6019Z" fill="#061A36"/>
</g>
</svg>
