<svg width="173" height="100" viewBox="0 0 173 100" fill="none" xmlns="http://www.w3.org/2000/svg">
<mask id="mask0_10_221" style="mask-type:luminance" maskUnits="userSpaceOnUse" x="28" y="41" width="117" height="18">
<path d="M144.007 41.599H28.9777V58.4325H144.007V41.599Z" fill="white"/>
</mask>
<g mask="url(#mask0_10_221)">
<path fill-rule="evenodd" clip-rule="evenodd" d="M65.0272 53.6196H66.7639C66.9913 55.4182 67.6944 56.9418 70.6714 56.9418C72.5737 56.9418 74.0417 55.7993 74.0417 54.0855C74.0417 52.3715 73.2768 51.652 70.4646 51.1863C67.3631 50.6995 65.5233 49.7051 65.5233 47.0179C65.5233 44.6908 67.4874 42.9135 70.2791 42.9135C73.2356 42.9135 75.0752 44.3944 75.3645 47.0816H73.7522C73.4004 45.1776 72.3255 44.3944 70.2791 44.3944C68.2523 44.3944 67.1983 45.4314 67.1983 46.8488C67.1983 48.3297 67.7356 49.0921 70.7545 49.5569C74.0417 50.0864 75.7781 51.1016 75.7781 53.958C75.7781 56.497 73.6072 58.4228 70.6714 58.4228C66.7227 58.4228 65.2961 56.2015 65.0272 53.6196Z" fill="#262730"/>
<path fill-rule="evenodd" clip-rule="evenodd" d="M78.3927 55.4822V48.3719H76.8418V46.9013H78.3927V44.277H80.1089V46.9013H82.6309V48.3719H80.1089V55.3137C80.1089 56.3856 80.5845 56.9108 81.4524 56.9108C81.9905 56.9108 82.4035 56.827 82.7761 56.6796V58.1503C82.425 58.2758 82.0112 58.3814 81.3081 58.3814C79.344 58.3814 78.3927 57.2046 78.3927 55.4822Z" fill="#262730"/>
<path fill-rule="evenodd" clip-rule="evenodd" d="M84.4061 46.9013H86.1223V48.8759C86.8036 47.6365 87.7342 46.7757 89.6776 46.7119V48.3508C87.5076 48.4554 86.1223 49.3836 86.1223 52.0935V58.2338H84.4061V46.9013Z" fill="#262730"/>
<path fill-rule="evenodd" clip-rule="evenodd" d="M98.2363 51.5944C98.1409 49.1732 96.9126 48.1545 95.1348 48.1545C93.3775 48.1545 92.1869 49.4321 91.9097 51.5944H98.2363ZM90.069 52.771V52.3942C90.069 48.7642 92.1579 46.7048 95.1348 46.7048C97.6362 46.7048 99.9934 48.1937 99.9934 52.2521V53.0021H91.847C91.9302 55.502 93.1089 56.9732 95.3212 56.9732C96.9958 56.9732 97.9675 56.3427 98.1952 55.0615H99.9111C99.5385 57.2673 97.74 58.4229 95.3005 58.4229C92.2401 58.4229 90.069 56.1525 90.069 52.771Z" fill="#262730"/>
<path fill-rule="evenodd" clip-rule="evenodd" d="M108.209 54.3898V52.9263H106.721C104.377 52.9097 102.958 53.5053 102.958 55.1224C102.958 56.2572 103.496 57.0361 105.005 57.0361C106.824 57.0361 108.209 56.0915 108.209 54.3898ZM101.242 55.1224C101.242 52.5808 103.69 51.6868 106.659 51.6868H108.209V50.6333C108.209 48.8897 107.548 48.1545 105.893 48.1545C104.405 48.1545 103.578 48.7851 103.413 50.1292H101.697C101.924 47.6294 103.888 46.7048 105.977 46.7048C108.045 46.7048 109.926 47.3319 109.926 50.3987V58.2336H108.209V56.8476C107.403 57.8769 106.432 58.4229 104.839 58.4229C102.834 58.4229 101.242 57.3702 101.242 55.1224Z" fill="#262730"/>
<path fill-rule="evenodd" clip-rule="evenodd" d="M112.206 46.8933H113.922V48.5748C114.419 47.5456 115.597 46.7048 117.148 46.7048C118.534 46.7048 119.754 47.2935 120.312 48.7642C121.056 47.3356 122.669 46.7048 124.012 46.7048C125.956 46.7048 127.651 47.8814 127.651 51.0746V58.2336H125.935V50.9491C125.935 49.0162 125.129 48.2181 123.64 48.2181C122.235 48.2181 120.787 49.1846 120.787 51.1593V58.2336H119.071V50.9491C119.071 49.0162 118.265 48.2181 116.776 48.2181C115.37 48.2181 113.922 49.1846 113.922 51.1593V58.2336H112.206V46.8933Z" fill="#262730"/>
<path fill-rule="evenodd" clip-rule="evenodd" d="M130.035 58.2336H131.751V42.5321H130.035V58.2336Z" fill="#262730"/>
<path fill-rule="evenodd" clip-rule="evenodd" d="M134.547 58.2301H136.263V46.8974H134.547V58.2301ZM134.237 43.6869C134.237 43.0573 134.754 42.5321 135.373 42.5321C135.994 42.5321 136.511 43.0573 136.511 43.6869C136.511 44.3174 135.994 44.8426 135.373 44.8426C134.754 44.8426 134.237 44.3174 134.237 43.6869Z" fill="#262730"/>
<path fill-rule="evenodd" clip-rule="evenodd" d="M139.619 55.4822V48.3719H138.068V46.8936L139.619 46.9013V44.277H141.335V46.9013H143.857V48.3719H141.335V55.3137C141.335 56.3856 141.811 56.9108 142.679 56.9108C143.216 56.9108 143.63 56.827 144.002 56.6796V58.1503C143.65 58.2758 143.238 58.3814 142.535 58.3814C140.57 58.3814 139.619 57.2046 139.619 55.4822Z" fill="#262730"/>
<path fill-rule="evenodd" clip-rule="evenodd" d="M59.8578 44.8348C59.8578 44.8435 59.8578 44.8435 59.8578 44.8523L55.0823 57.281C54.764 57.8654 54.2832 58.2318 53.5792 58.2318H35.3266C34.8887 58.2318 34.4329 58.0138 34.1839 57.787L59.257 44.3288H59.2654C59.6088 44.1369 59.978 44.4684 59.8578 44.8348Z" fill="#FFC7C7"/>
<path fill-rule="evenodd" clip-rule="evenodd" d="M55.0669 57.2819C54.7338 57.8804 54.2703 58.2319 53.5648 58.2319H35.3232C34.6966 58.2319 34.087 57.8838 33.7951 57.2733L43.9332 41.9286C44.1649 41.571 44.6886 41.571 44.929 41.9286L55.0669 57.2819Z" fill="#FF8C8C"/>
<path fill-rule="evenodd" clip-rule="evenodd" d="M54.6953 57.8045C54.4618 58.0425 54.0781 58.2319 53.5792 58.2319H35.3267C34.7 58.2319 34.0415 57.8969 33.7977 57.2724L29.0052 44.8523C28.8764 44.5034 29.2284 44.1544 29.5718 44.3203C29.5804 44.3203 29.5974 44.3203 29.606 44.3289L54.6953 57.8045Z" fill="#FF4B4B"/>
</g>
</svg>
