<svg width="173" height="100" viewBox="0 0 173 100" fill="none" xmlns="http://www.w3.org/2000/svg">
<path fill-rule="evenodd" clip-rule="evenodd" d="M90.4367 59.7264L87.7555 55.8927L85.4997 59.7264H82.2014L86.0955 53.5021L82.1163 47.7948H85.4784L88.0961 51.5638L90.3516 47.7948H93.65L89.692 53.8467L93.799 59.7264H90.4367Z" fill="#002A41"/>
<path fill-rule="evenodd" clip-rule="evenodd" d="M99.885 59.7244V57.1184H98.7145C98.1755 57.1184 97.7925 57.0036 97.5655 56.7737C97.3385 56.5441 97.2249 56.1421 97.2249 55.5676V50.3556H99.8637V47.7926H97.2249V44.8422H94.2245V47.7926V50.3556V55.5246C94.2245 57.0322 94.5722 58.1091 95.2673 58.7553C95.9766 59.4013 96.991 59.7244 98.3102 59.7244H99.885Z" fill="#002A41"/>
<path fill-rule="evenodd" clip-rule="evenodd" d="M122.131 56.7018L125.132 47.8433H128.348L123.953 59.7259H120.267L115.873 47.8433H119.109L122.131 56.7018Z" fill="#1B9CAA"/>
<path fill-rule="evenodd" clip-rule="evenodd" d="M100.828 52.6706C100.828 50.0047 102.963 47.8433 105.597 47.8433C106.79 47.8433 107.88 48.2861 108.716 49.0181C109.552 48.2861 110.642 47.8433 111.835 47.8433C114.469 47.8433 116.604 50.0047 116.604 52.6706V59.7259H113.302V52.6706C113.302 51.8503 112.645 51.1853 111.835 51.1853C111.024 51.1853 110.367 51.8503 110.367 52.6706V59.7259H107.065V52.6706C107.065 51.8503 106.408 51.1853 105.597 51.1853C104.787 51.1853 104.13 51.8503 104.13 52.6706V59.7259H100.828V52.6706Z" fill="#1B9CAA"/>
<path fill-rule="evenodd" clip-rule="evenodd" d="M83.1731 54.5274C83.2033 54.284 83.2186 54.0361 83.2186 53.7847C83.2186 50.5034 80.5903 47.8433 77.3482 47.8433C74.1061 47.8433 71.4778 50.5034 71.4778 53.7847C71.4778 57.066 74.1061 59.7259 77.3482 59.7259C79.8119 59.7259 81.9211 58.1901 82.7918 56.0127H79.8095C79.2048 56.6964 78.3262 57.1266 77.3482 57.1266C75.7768 57.1266 74.4617 56.0157 74.128 54.5274H79.1829H80.5686H83.1731ZM77.3482 50.4426C76.0517 50.4426 74.9298 51.1989 74.3895 52.2992H80.3071C79.7668 51.1989 78.6448 50.4426 77.3482 50.4426Z" fill="#002A41"/>
<path fill-rule="evenodd" clip-rule="evenodd" d="M65.606 47.8433C62.9717 47.8433 60.8364 50.0047 60.8364 52.6706V59.7259H64.1384V52.6706C64.1384 51.8503 64.7954 51.1853 65.606 51.1853C66.4166 51.1853 67.0736 51.8503 67.0736 52.6706V59.7259H70.3756V52.6706C70.3756 50.0047 68.2402 47.8433 65.606 47.8433Z" fill="#002A41"/>
<path fill-rule="evenodd" clip-rule="evenodd" d="M45.1026 38.1525C45.1026 38.1525 49.1424 41.7765 50.795 48.0954C51.9455 52.4945 51.7131 59.7107 51.7131 59.7107H49.1424C49.1424 59.7107 45.013 53.916 44.1845 49.5821C43.3089 45.0016 45.1026 38.1525 45.1026 38.1525ZM47.4493 43.7786C47.4493 43.7786 45.8012 45.2823 46.7126 49.6078C47.624 53.9334 50.6961 58.8209 50.6961 58.8209C50.6961 58.8209 50.5443 55.8439 49.9943 51.1669C49.4442 46.4899 47.4493 43.7786 47.4493 43.7786Z" fill="#002A41"/>
<path fill-rule="evenodd" clip-rule="evenodd" d="M52.5414 50.0468C52.1775 47.8035 51.3478 45.4006 51.3478 45.4006C51.3478 45.4006 52.0291 43.3561 53.0922 41.4047C54.155 39.4533 55.2956 38.1525 55.2956 38.1525C55.2956 38.1525 57.7748 43.4492 57.4992 48.6528C57.2935 52.5378 55.7574 56.7852 54.9921 58.6886H52.8513C52.8513 58.6886 53 52.8758 52.5414 50.0468Z" fill="#1B9CAA"/>
</svg>
