<svg width="173" height="100" viewBox="0 0 173 100" fill="none" xmlns="http://www.w3.org/2000/svg">
<path d="M34.4786 44.5813C34.4786 43.362 33.6835 42.571 32.4576 42.571H28.4341V46.5917H32.4576C33.6835 46.5917 34.4786 45.8007 34.4786 44.5813ZM40.5146 52.4317C40.5146 51.2122 39.7193 50.4212 38.4934 50.4212H28.4341V54.4419H38.4934C39.7193 54.4393 40.5146 53.6481 40.5146 52.4317ZM38.4951 44.5813C38.4951 45.8007 39.2902 46.5917 40.5156 46.5917H51.8854C51.7473 45.2126 51.4178 43.8594 50.9064 42.571H40.5156C39.2902 42.571 38.4951 43.362 38.4951 44.5813ZM44.5309 52.4317C44.5309 53.6509 45.3255 54.4419 46.5514 54.4419H50.9064C51.4182 53.1535 51.7478 51.8003 51.8861 50.4212H46.5514C45.3255 50.4184 44.5309 51.2096 44.5309 52.4317ZM38.1888 34.7137H30.9217C29.4121 34.7137 28.4341 35.6917 28.4341 37.1985V38.7441H48.4804C46.07 36.1792 42.5239 34.7137 38.1888 34.7137ZM28.4341 59.8019C28.4341 61.3098 29.4132 62.2869 30.9217 62.2869H38.1888C42.5239 62.2869 46.07 60.8215 48.4815 58.2559H28.4341V59.8019Z" fill="#0079FF"/>
<path d="M70.0815 44.6835C69.2843 43.6653 68.1101 43.068 66.4928 43.068C63.5244 43.068 61.0881 45.6126 61.0881 48.9101C61.0881 52.2076 63.5244 54.7516 66.4928 54.7516C68.1101 54.7516 69.2843 54.1543 70.0815 53.136V54.4414H72.9389V38.9519H70.0815V44.6835ZM67.0259 52.0299C65.2533 52.0299 63.9464 50.7684 63.9464 48.9101C63.9464 47.0515 65.2533 45.7899 67.0259 45.7899C68.7759 45.7899 70.0826 47.0511 70.0826 48.9101C70.0826 50.7691 68.7748 52.0299 67.0259 52.0299ZM80.8535 43.068C77.3768 43.068 75.0047 45.6126 75.0047 48.9101C75.0047 52.2076 77.3525 54.7516 81.0741 54.7516C83.2008 54.7516 84.8619 53.89 85.9034 52.3821L83.5991 51.0539C83.114 51.696 82.2261 52.1606 81.1193 52.1606C79.613 52.1606 78.3946 51.5409 77.9963 50.0809H86.3476C86.4184 49.6938 86.4544 49.3013 86.4555 48.9079C86.457 45.6574 84.1308 43.068 80.8525 43.068H80.8535ZM77.952 47.8697C78.2841 46.4538 79.3252 45.6348 80.8535 45.6348C82.0499 45.6348 83.2461 46.2767 83.603 47.8697H77.952ZM90.7829 46.5201C90.7829 45.9228 91.3587 45.6126 92.0676 45.6126C92.887 45.6126 93.5076 46.0333 93.8397 46.7435L96.2765 45.4159C95.4137 43.8887 93.8617 43.0701 92.0676 43.0701C89.7862 43.0701 87.8587 44.3313 87.8587 46.5884C87.8587 50.483 93.5733 49.5977 93.5733 51.2135C93.5733 51.8554 92.9533 52.1649 92.0449 52.1649C90.9375 52.1649 90.184 51.634 89.874 50.7264L87.394 52.1208C88.1915 53.8247 89.8307 54.7537 92.046 54.7537C94.4181 54.7537 96.4986 53.6035 96.4986 51.2135C96.4968 47.1399 90.7818 48.1577 90.7818 46.5201H90.7829ZM103.61 51.9194C101.904 51.9194 100.642 50.6582 100.642 48.9101C100.642 47.1399 101.904 45.8782 103.61 45.8782C104.742 45.8782 105.692 46.4538 106.135 47.3607L108.594 45.9228C107.686 44.2189 105.803 43.0686 103.634 43.0686C100.267 43.0686 97.7858 45.6132 97.7858 48.9105C97.7858 52.208 100.266 54.752 103.634 54.752C105.805 54.752 107.688 53.6017 108.64 51.8759L106.161 50.4593C105.715 51.3664 104.764 51.9194 103.61 51.9194ZM112.98 45.2809V43.3777H110.123V54.4418H112.98V49.1535C112.98 46.8297 114.863 46.1662 116.348 46.3428V43.1563C114.953 43.1563 113.557 43.7762 112.98 45.2809ZM118.298 54.4418H121.156V43.3777H118.298V54.4418ZM118.298 41.9004H121.156V38.9536H118.298V41.9004ZM130.226 43.068C128.609 43.068 127.435 43.6653 126.638 44.6835V43.3777H123.78V58.8677H126.638V53.1364C127.435 54.1543 128.609 54.752 130.226 54.752C133.195 54.752 135.631 52.2076 135.631 48.9105C135.631 45.6137 133.195 43.068 130.226 43.068ZM129.695 52.0299C127.944 52.0299 126.638 50.7684 126.638 48.9101C126.638 47.0515 127.944 45.7899 129.695 45.7899C131.467 45.7899 132.774 47.0511 132.774 48.9101C132.774 50.7691 131.467 52.0299 129.695 52.0299ZM143.895 46.1216V43.3777H141.391V40.2801H138.529L138.533 43.3777H136.606V46.1216H138.533V50.7243C138.533 53.7116 139.885 54.8845 143.895 54.4403V51.8532C142.255 51.9416 141.391 51.9194 141.391 50.7221V46.1216H143.895Z" fill="#00073D"/>
</svg>
