<svg width="173" height="100" viewBox="0 0 173 100" fill="none" xmlns="http://www.w3.org/2000/svg">
<path d="M89.9699 47.0499C89.7278 47.1865 89.4279 47.2548 89.0819 47.2548C88.9667 47.2548 88.7015 47.2434 88.2633 47.1979V48.4377C88.6438 48.54 89.0242 48.5743 89.4163 48.5743C90.016 48.5743 90.5117 48.4151 90.9155 48.1079C91.319 47.8007 91.6766 47.3228 91.9762 46.6632L95.3665 39.0187L93.7637 39.0415L91.711 44.0468L89.7162 39.0415H88.1134L90.8924 45.5938L90.6042 46.2422C90.4196 46.6404 90.2005 46.9133 89.9699 47.0499Z" fill="#141927"/>
<path d="M97.8919 44.968C98.1457 45.3205 98.4915 45.5936 98.9066 45.7869C99.3334 45.9803 99.7946 46.0827 100.314 46.0827C101.294 46.0827 102.101 45.7528 102.735 45.059C103.369 44.3765 103.704 43.5231 103.704 42.4994C103.704 41.4757 103.381 40.6224 102.724 39.9399C102.066 39.2574 101.247 38.9162 100.267 38.9162L100.325 38.9048C99.3218 38.9048 98.5378 39.2346 97.9842 39.8944V35.4351H96.4966V45.912H97.8805V44.968H97.8919ZM98.5262 40.8499C98.9413 40.4632 99.4372 40.2585 100.014 40.2585C100.625 40.2585 101.132 40.4632 101.547 40.8841C101.962 41.3051 102.159 41.8396 102.159 42.488C102.159 43.1479 101.962 43.6938 101.547 44.1147C101.132 44.5357 100.659 44.7632 100.048 44.7632H100.025C99.4486 44.7632 98.9527 44.5811 98.5378 44.2058C98.1227 43.8303 97.915 43.273 97.915 42.5335C97.915 41.7941 98.111 41.2368 98.5262 40.8499Z" fill="#141927"/>
<path d="M84.6424 55.377H84.6309C83.766 55.377 83.0743 55.6613 82.5439 56.2186V55.5362H81.1599V62.4299H82.6475V58.3118C82.6475 57.8454 82.786 57.4701 83.0857 57.1743C83.3855 56.8785 83.766 56.7307 84.2389 56.7307C84.6887 56.7307 85.0575 56.8899 85.346 57.1743C85.6342 57.4701 85.7725 57.8568 85.7725 58.3346V62.4299H87.2601V58.1299C87.2601 57.3109 87.0295 56.651 86.5681 56.1506C86.1069 55.6499 85.4496 55.377 84.6424 55.377Z" fill="#141927"/>
<path d="M92.2072 55.3651C91.2039 55.3651 90.3506 55.7178 89.6587 56.4117C88.9669 57.1056 88.6093 57.9589 88.6093 58.9712C88.6093 59.9951 88.9669 60.8482 89.6703 61.5307C90.3737 62.2132 91.2731 62.5658 92.3455 62.5658C93.4063 62.5658 94.3288 62.202 95.1245 61.4624L94.4212 60.4615C93.7984 61.0074 93.118 61.2692 92.3916 61.2692C91.7804 61.2692 91.2731 61.1098 90.858 60.7914C90.4428 60.4727 90.1891 60.0177 90.0969 59.449H95.2859C95.4128 59.1078 95.4244 58.5276 95.4244 58.5276C95.4244 57.6174 95.1129 56.8667 94.5017 56.2639C93.9022 55.6609 93.1297 55.3651 92.2072 55.3651ZM90.1315 58.3115C90.2468 57.7995 90.4889 57.3899 90.858 57.0829C91.227 56.7757 91.6421 56.6277 92.1378 56.6165C92.6338 56.6165 93.0489 56.7757 93.3949 57.0829C93.7292 57.3899 93.9022 57.7995 93.9138 58.3115H90.1315Z" fill="#141927"/>
<path d="M108.8 46.094C109.861 46.094 110.784 45.7302 111.579 44.9906L110.876 43.9897C110.254 44.5356 109.573 44.7974 108.847 44.7974C108.235 44.7974 107.728 44.638 107.313 44.3196C106.898 44.0009 106.644 43.5459 106.552 42.9772H111.741C111.879 42.6131 111.879 42.0558 111.879 42.0558C111.879 41.1456 111.568 40.3949 110.957 39.7921C110.346 39.1891 109.585 38.8933 108.662 38.8933C107.659 38.8933 106.806 39.246 106.114 39.9399C105.422 40.6338 105.064 41.4871 105.064 42.4994C105.064 43.5233 105.422 44.3764 106.125 45.0589C106.829 45.7528 107.728 46.094 108.8 46.094ZM107.301 40.6224C107.671 40.3154 108.086 40.1674 108.581 40.1562C109.077 40.1562 109.492 40.3154 109.838 40.6224C110.173 40.9296 110.346 41.3391 110.357 41.8509H106.575C106.69 41.3277 106.932 40.9296 107.301 40.6224Z" fill="#141927"/>
<path d="M100.394 61.224C99.9446 61.224 99.5986 61.1443 99.3795 60.9622C99.149 60.7802 99.0451 60.4732 99.0451 60.0408V56.8102H101.109V55.536H99.0451V53.7386H97.546V55.536H96.416V56.8102H97.546V60.166C97.546 60.9622 97.7767 61.5652 98.2263 61.9519C98.6761 62.3386 99.2987 62.5435 100.106 62.5435C100.464 62.5435 100.867 62.4866 101.34 62.3843V61.1443C100.925 61.1897 100.636 61.224 100.417 61.224H100.394Z" fill="#141927"/>
<path d="M110.438 59.9613L108.293 55.377H107.786L105.675 60.0182L103.842 55.5362H102.262L105.352 62.5437H105.86L108.039 57.9819L110.219 62.5437H110.738L113.816 55.5362H112.237L110.438 59.9613Z" fill="#141927"/>
<path d="M117.91 55.377C116.872 55.377 116.007 55.7296 115.304 56.4121C114.601 57.0946 114.243 57.9479 114.243 58.9602C114.243 59.9727 114.601 60.8144 115.304 61.5083C116.007 62.191 116.872 62.5437 117.91 62.5549C118.925 62.5549 119.79 62.2022 120.516 61.5083C121.243 60.8144 121.589 59.9613 121.589 58.9488C121.589 57.9479 121.22 57.0946 120.493 56.4007C119.79 55.7182 118.925 55.3884 117.91 55.377ZM119.421 60.5414C119.006 60.9624 118.498 61.1671 117.887 61.1671C117.264 61.1671 116.757 60.9624 116.342 60.5414C115.927 60.1205 115.731 59.5858 115.731 58.9602C115.731 58.3118 115.927 57.7885 116.342 57.3677C116.757 56.9468 117.264 56.7419 117.887 56.7193H117.898C118.51 56.7307 119.017 56.9468 119.432 57.3563C119.847 57.7773 120.043 58.3118 120.043 58.9488C120.043 59.5858 119.824 60.1205 119.421 60.5414Z" fill="#141927"/>
<path d="M124.345 56.4228V55.5243H122.961V62.4178H124.448V58.7322C124.448 58.1293 124.644 57.6743 125.025 57.333C125.406 57.003 125.89 56.8324 126.466 56.8324H126.916V55.5357C126.755 55.49 126.57 55.4674 126.362 55.4674C125.521 55.4674 124.84 55.7858 124.345 56.4228Z" fill="#141927"/>
<path d="M114.739 42.2717C114.739 41.6689 114.935 41.2139 115.315 40.8725C115.696 40.5427 116.18 40.372 116.757 40.372H117.207V39.0752C117.045 39.0297 116.861 39.0071 116.653 39.0071C115.8 39.0071 115.119 39.3369 114.624 39.9739V39.0752H113.24V45.9575H114.727V42.2717H114.739Z" fill="#141927"/>
<path d="M129.787 51.9066H128.3V62.4179H129.787V51.9066Z" fill="#141927"/>
<path d="M131.586 58.5504L134.388 55.5359H132.555L129.833 58.5392L132.866 62.4182H134.654L131.586 58.5504Z" fill="#141927"/>
<path d="M87.2486 39.064H85.4035L82.6938 42.0785L85.7264 45.9577H87.5138L84.4466 42.0899L87.2486 39.064Z" fill="#141927"/>
<path d="M82.6477 35.4463H81.1602V45.9573H82.6477V35.4463Z" fill="#141927"/>
<path d="M53.8915 48.6011L72.794 59.4139C73.4581 59.7907 74.2824 59.3111 74.2824 58.5576V38.6331C74.2824 37.8681 73.4581 37.4 72.794 37.7768L53.8915 48.6011Z" fill="#31CB9E"/>
<path d="M72.3741 32.988L59.4627 23.4978C58.863 23.0562 58.0047 23.3733 57.8517 24.0754L53.1364 45.1959L72.2567 34.6188C72.8915 34.2676 72.9503 33.4184 72.3741 32.988Z" fill="#31CB9E"/>
<path d="M59.4507 73.696L72.373 64.2037C72.9493 63.7733 72.8905 62.9236 72.2672 62.5725L53.1364 51.9929L57.8515 73.1182C57.9926 73.8205 58.8627 74.1264 59.4507 73.696Z" fill="#31CB9E"/>
<path d="M48.9806 48.2224L53.8678 25.2522C54.0602 24.3493 53.0421 23.6979 52.318 24.2578L39.8054 33.9032C39.1606 34.3946 38.7873 35.1716 38.7873 35.9829V60.4504C38.7873 61.2619 39.1606 62.039 39.8054 62.5303L52.318 72.1756C53.0421 72.7355 54.0602 72.0842 53.8678 71.1814L48.9806 48.2224Z" fill="#31CB9E"/>
</svg>
