<svg width="173" height="100" viewBox="0 0 173 100" fill="none" xmlns="http://www.w3.org/2000/svg">
<path d="M126.604 50.7672H126.848C127.672 50.7672 128.463 51.0869 129.046 51.6558L134.097 56.5861C134.879 57.3498 134.837 58.614 133.969 59.3232C133.21 59.944 132.08 59.8633 131.38 59.1797L125.245 53.1918C124.937 52.8917 124.44 52.8892 124.13 53.1841L124.122 53.1918L117.989 59.1778C117.26 59.8889 116.073 59.9415 115.319 59.2562C114.528 58.5366 114.511 57.3264 115.269 56.5861L120.321 51.6556C120.904 51.0869 121.694 50.7672 122.518 50.7672H126.604ZM122.763 49.2764H122.518C121.694 49.2764 120.903 48.9569 120.321 48.388L115.269 43.4576C114.487 42.6937 114.53 41.4298 115.397 40.7206C116.156 40.0997 117.286 40.1805 117.987 40.8639L124.121 46.852C124.43 47.1531 124.929 47.1546 125.24 46.8565L125.245 46.852L131.377 40.866C132.106 40.1549 133.293 40.1023 134.047 40.7876C134.839 41.5071 134.855 42.7174 134.097 43.4574L129.045 48.388C128.463 48.9569 127.672 49.2766 126.848 49.2766H122.763V49.2764Z" fill="#8E8C9A"/>
<path d="M74.1908 57.2604L68.2531 42.3926C67.7497 41.1323 65.9226 41.1323 65.4191 42.3926L59.4813 57.2604C59.4078 57.4444 59.4121 57.6458 59.4933 57.8268C59.5747 58.0075 59.7232 58.1471 59.9138 58.2202C60.0026 58.2538 60.0952 58.2708 60.1887 58.2708C60.2923 58.2708 60.3945 58.2499 60.4944 58.2081C60.6797 58.128 60.8223 57.9828 60.896 57.7988L66.8362 42.9303L72.7763 57.7988C72.85 57.9828 72.9926 58.128 73.1778 58.2081C73.2778 58.2499 73.3799 58.2708 73.4835 58.2708C73.577 58.2708 73.6697 58.2538 73.7584 58.2202C73.9491 58.1471 74.0975 58.0075 74.1787 57.8268C74.2602 57.6458 74.2645 57.4444 74.1908 57.2604ZM81.3075 43.2485H90.1436C90.5473 43.2485 90.9006 42.9516 90.9277 42.5584C90.9575 42.1269 90.6061 41.7665 90.1703 41.7665H81.3041C80.0531 41.7665 79.0388 42.7564 79.0388 43.9775V57.5032C79.0388 57.8972 79.3428 58.2421 79.7459 58.2686C80.1879 58.2975 80.5572 57.9548 80.5572 57.5293V50.759H90.1429C90.5466 50.759 90.9 50.4623 90.9271 50.0692C90.9566 49.6377 90.6052 49.2772 90.1694 49.2772H80.5572V43.9807C80.5572 43.5763 80.893 43.2485 81.3075 43.2485ZM107.873 56.7884H99.01C98.5957 56.7884 98.2599 56.4605 98.2599 56.056V50.759H107.847C108.251 50.759 108.604 50.4623 108.631 50.069C108.661 49.6379 108.309 49.2775 107.874 49.2775L98.2599 49.2772V43.9807C98.2599 43.5763 98.5957 43.2485 99.01 43.2485H107.846C108.25 43.2485 108.603 42.9518 108.63 42.5584C108.66 42.1269 108.309 41.7665 107.873 41.7665H99.0066C97.7556 41.7665 96.7415 42.7564 96.7415 43.9775V56.0594C96.7415 57.2805 97.7556 58.2704 99.0066 58.2704H107.846C108.25 58.2704 108.603 57.9737 108.63 57.5803C108.66 57.1488 108.309 56.7884 107.873 56.7884ZM54.6466 53.7823C54.2995 53.5544 53.8269 53.6438 53.5925 53.9818C52.2379 55.9394 49.9862 57.1081 47.5693 57.1081C43.5642 57.1081 40.3059 53.9277 40.3059 50.0183C40.3059 46.1094 43.5642 42.929 47.5693 42.929C49.9862 42.929 52.2379 44.0975 53.5925 46.0551C53.8269 46.3933 54.2995 46.4827 54.6466 46.2546C54.815 46.1432 54.9284 45.9751 54.9669 45.7813C55.0053 45.5861 54.9639 45.3883 54.8504 45.2246C53.2131 42.8596 50.4909 41.4472 47.5693 41.4472C42.7266 41.4472 38.7873 45.2922 38.7873 50.0183C38.7873 54.7446 42.7266 58.5898 47.5693 58.5898C50.4909 58.5898 53.2131 57.1773 54.8504 54.8123C54.9639 54.6488 55.0053 54.4508 54.9669 54.2558C54.9284 54.0619 54.815 53.8939 54.6466 53.7823ZM124.13 53.1841L117.989 59.1777C117.26 59.8889 116.073 59.9415 115.319 59.2562C114.528 58.5366 114.511 57.3266 115.27 56.5863L120.321 51.6558C120.904 51.0869 121.694 50.7672 122.518 50.7672H126.604C126.604 50.7672 124.44 52.8891 124.13 53.1841ZM125.24 46.8565L131.377 40.866C132.106 40.1549 133.293 40.1023 134.047 40.7876C134.839 41.5071 134.855 42.7174 134.097 43.4576L129.045 48.3882C128.463 48.9569 127.672 49.2766 126.848 49.2766H122.763C122.763 49.2766 124.929 47.1546 125.24 46.8565Z" fill="#1D1936"/>
</svg>
