<svg width="173" height="100" viewBox="0 0 173 100" fill="none" xmlns="http://www.w3.org/2000/svg">
<path d="M47.4465 36.4432C46.5672 36.513 46.0894 36.5778 45.4322 36.7168C39.9644 37.8709 35.7473 42.354 34.9348 47.8763C34.8396 48.524 34.8161 48.8172 34.7978 49.5817C34.7453 51.8019 35.1884 53.8371 36.1549 55.8157C38.1442 59.8886 42.0358 62.675 46.5407 63.2523C48.0257 63.4425 49.7167 63.3675 51.1662 63.0468C56.722 61.8176 60.9064 57.2331 61.6172 51.596C62.2062 46.9266 60.3444 42.3118 56.6887 39.3797C54.5486 37.6633 51.9779 36.6575 49.2107 36.4544C48.8374 36.427 47.7379 36.4199 47.4465 36.4432ZM44.2412 43.6588C44.6765 43.6961 45.2183 43.8025 45.5851 43.9222C46.1497 44.1071 46.8748 44.5107 47.3493 44.9045L47.5464 45.068L46.8685 45.9869C46.4957 46.4927 46.1822 46.9151 46.1717 46.9266C46.1614 46.9378 46.0468 46.8744 45.9203 46.7874C45.2364 46.3169 44.6235 46.1179 43.859 46.1179C43.3798 46.1179 43.1165 46.1724 42.771 46.3434C42.0306 46.7101 41.6119 47.4412 41.4124 48.7143L41.3596 49.0524V49.9641V50.8757L41.4124 51.205C41.5229 51.8931 41.7187 52.4182 42.0072 52.7986C42.259 53.1312 42.6415 53.382 43.1004 53.5145L43.3298 53.5808H43.8444H44.359L44.6207 53.5119C44.7646 53.4737 44.9921 53.3966 45.1263 53.3404C45.3411 53.2504 45.8723 52.9626 46.0791 52.8245L46.1525 52.7752L46.8362 53.7574C47.213 54.2983 47.5199 54.7526 47.5199 54.7688C47.5199 54.8569 46.7878 55.3349 46.279 55.5789C45.7467 55.8344 45.3322 55.969 44.7265 56.0834C44.3984 56.1453 43.2738 56.1717 42.8828 56.1267C41.2037 55.9333 39.8862 55.1613 39.0153 53.8602C38.5072 53.1015 38.1832 52.1901 38.0328 51.0963C37.9631 50.59 37.9633 49.4083 38.0333 48.876C38.2274 47.397 38.7717 46.1696 39.6303 45.2739C40.5872 44.2757 41.63 43.7923 43.1385 43.6478C43.3733 43.6252 43.9118 43.6306 44.2412 43.6588ZM51.2022 44.3976C52.5825 50.1316 53.4482 53.6499 53.4674 53.6045C53.4862 53.5603 55.93 44.0179 55.93 43.989C55.93 43.9841 56.6708 43.9802 57.5796 43.9802H59.2292L59.2124 44.0448C59.1308 44.3595 55.3077 56.1707 55.1929 56.4626C54.5208 58.174 53.3787 59.4255 51.9072 60.0636C51.3495 60.3053 50.7192 60.4845 50.0489 60.592C49.5635 60.6697 49.0741 60.7182 49.0481 60.6911C49.0356 60.6781 48.9516 60.1663 48.8609 59.5515C48.7433 58.7547 48.7053 58.4299 48.7286 58.415C48.7461 58.4038 48.8374 58.3859 48.9285 58.3756C49.1948 58.3455 49.7753 58.2184 50.084 58.1227C50.4986 57.9941 50.8237 57.8479 51.0927 57.6686C51.3484 57.4982 51.7902 57.062 51.7687 57.0009C51.7314 56.8949 47.7571 44.129 47.7399 44.0595L47.7198 43.9802H49.4108H51.1016L51.2022 44.3976Z" fill="black"/>
<path d="M123.136 37.9698C122.427 38.1083 121.9 38.5947 121.726 39.2702C121.665 39.5048 121.665 40.0261 121.724 40.279C121.836 40.7523 122.192 41.201 122.621 41.4086C123.624 41.8944 124.841 41.5575 125.31 40.6642C125.471 40.3566 125.511 40.1526 125.497 39.7084C125.483 39.2674 125.429 39.0731 125.236 38.7675C124.911 38.2531 124.371 37.9662 123.68 37.9416C123.468 37.9341 123.265 37.9446 123.136 37.9698Z" fill="black"/>
<path d="M69.2506 43.7102C68.7066 43.8104 68.0423 44.0859 67.5951 44.3968C67.3187 44.5889 66.9821 44.8896 66.7477 45.1539L66.5601 45.3655L66.4924 44.7567C66.4552 44.4215 66.419 44.1185 66.4117 44.082L66.3983 44.0157H65.0162H63.6342V52.3523V60.6887L63.7152 60.6872C63.7597 60.6863 64.4635 60.6096 65.281 60.5166L66.7658 60.3475L66.7733 57.632L66.7807 54.9163L67.0394 55.1658C67.5428 55.6509 68.0598 55.9203 68.7889 56.0778L69.089 56.1424H69.6917H70.2944L70.5945 56.0772C71.1472 55.9567 71.5742 55.7805 72 55.4968C73.3233 54.6152 74.138 52.9697 74.3359 50.7789C74.3749 50.3479 74.3749 49.3822 74.3357 48.8529C74.1565 46.4242 73.3369 44.7705 71.9705 44.081C71.7204 43.9547 71.3237 43.8197 70.9915 43.7477C70.6003 43.6631 69.6211 43.642 69.2506 43.7102ZM69.5446 46.0718C70.3069 46.3103 70.7627 46.9858 70.9551 48.1619C71.1259 49.2058 71.1074 50.771 70.9135 51.6905C70.6779 52.8081 70.123 53.5157 69.3094 53.7365C69.0476 53.8076 68.4833 53.8085 68.2215 53.738C67.7539 53.6127 67.3101 53.3115 66.9756 52.8932L66.7807 52.6491V50.0793V47.509L66.9351 47.2828C67.1443 46.9769 67.5975 46.5244 67.8745 46.3449C68.1302 46.1791 68.4176 46.0558 68.642 46.0156C68.8712 45.9742 69.3227 46.0024 69.5446 46.0718Z" fill="black"/>
<path d="M81.6597 43.693C81.345 43.7328 81.1005 43.8074 80.7922 43.9568C80.1083 44.2892 79.5732 44.8659 79.1786 45.695C79.0905 45.8802 79.0097 46.0664 78.9985 46.1112C78.9873 46.1553 78.9671 46.1988 78.9544 46.2068C78.9231 46.2266 78.9169 46.1861 78.7734 45.0246L78.6485 44.0161H77.2724H75.8962V49.9116V55.8074H77.4842H79.072V52.7568V49.7059L79.173 49.3236C79.565 47.8418 80.0941 47.102 80.954 46.8341L81.1746 46.7654L81.6155 46.7669C81.9567 46.7679 82.1226 46.783 82.3477 46.833C82.5065 46.8683 82.6428 46.8937 82.6478 46.8888C82.6624 46.8741 83.1874 43.8588 83.177 43.8485C83.1706 43.842 83.0123 43.8056 82.827 43.7679C82.4418 43.69 81.9393 43.6576 81.6597 43.693Z" fill="black"/>
<path d="M87.8348 43.7072C85.9623 43.9651 84.5069 45.1923 83.7929 47.1154C83.1016 48.9768 83.1759 51.571 83.9673 53.2258C84.2545 53.8257 84.592 54.2959 85.0618 54.75C85.8156 55.4789 86.7349 55.9029 87.9671 56.0899C88.4668 56.1657 89.6509 56.1663 90.1283 56.0911C91.3133 55.9044 92.3546 55.4684 93.3099 54.7588L93.5688 54.5667L93.5023 54.4726C93.4357 54.3784 92.2759 52.804 92.2587 52.7848C92.2531 52.7784 92.1103 52.8598 91.9427 52.9649C91.2986 53.369 90.6565 53.6406 90.1283 53.732C89.0902 53.9116 88.1726 53.7287 87.5494 53.2176C87.0397 52.7997 86.7181 52.0673 86.5839 51.0204L86.5643 50.8674H90.2532H93.9421L93.9783 50.1852C94.0716 48.421 93.7743 46.9806 93.0904 45.8833C92.3169 44.6421 91.1399 43.9103 89.5902 43.7079C89.1667 43.6523 88.2346 43.6521 87.8348 43.7072ZM89.3492 45.8861C89.9198 46.0395 90.3413 46.4332 90.5893 47.0448C90.7474 47.4347 90.8251 47.8534 90.8536 48.4652L90.8723 48.868H88.7197H86.5673L86.5865 48.7004C86.7455 47.3037 87.0768 46.5246 87.6819 46.1245C87.8925 45.9852 88.1435 45.8829 88.3787 45.8406C88.5853 45.8032 89.1374 45.829 89.3492 45.8861Z" fill="black"/>
<path d="M98.8912 43.6931C96.9562 43.9268 95.5881 44.9215 95.1784 46.3921L95.1155 46.6185L95.117 47.192L95.1185 47.7654L95.1963 48.0594C95.4899 49.1683 96.3035 49.9613 97.7149 50.5144C97.885 50.581 98.3206 50.7217 98.6853 50.8274C100.429 51.3341 100.89 51.5734 101.116 52.088C101.154 52.1765 101.167 52.2851 101.169 52.529L101.17 52.8525L101.073 53.0496C100.775 53.6571 99.8879 53.9608 98.7706 53.8384C97.9589 53.7495 97.2259 53.4699 96.4564 52.9559C96.2623 52.8262 96.0969 52.7202 96.0887 52.7202C96.0652 52.7202 94.5391 54.4256 94.5391 54.4521C94.5391 54.4649 94.6567 54.5704 94.798 54.6841C95.7021 55.4124 96.8063 55.8775 98.1002 56.0753L98.5235 56.1399L99.2882 56.1427C100.094 56.1455 100.338 56.1239 100.955 55.9956C101.638 55.8538 102.345 55.5684 102.852 55.2304C103.149 55.0325 103.6 54.6081 103.798 54.3403C104.298 53.6652 104.513 52.8379 104.421 51.9351C104.293 50.6676 103.714 49.8826 102.431 49.2386C101.971 49.007 101.546 48.8493 100.685 48.5898C99.0734 48.1042 98.5476 47.8395 98.3574 47.4184L98.2883 47.2654L98.2898 47.0155L98.2913 46.7657L98.3691 46.6155C98.5263 46.3127 98.8647 46.0916 99.3087 46.002C99.6331 45.9368 100.241 45.9421 100.664 46.0141C101.264 46.1164 101.938 46.3659 102.523 46.7025C102.682 46.7941 102.82 46.8684 102.831 46.8684C102.843 46.8684 103.122 46.4628 103.45 45.9686L104.049 45.0689L103.975 45.0109C103.725 44.814 103.234 44.5135 102.878 44.3399C102.257 44.0362 101.74 43.8714 101.023 43.7478L100.67 43.6868L99.8909 43.6767C99.4616 43.6709 99.0127 43.6782 98.8912 43.6931Z" fill="black"/>
<path d="M109.565 43.6937C108.674 43.802 107.856 44.0853 107.216 44.5064C106.875 44.7309 106.418 45.1959 106.213 45.5274C105.899 46.0375 105.763 46.533 105.762 47.1771C105.761 48.5884 106.436 49.5929 107.845 50.2775C108.313 50.5047 108.642 50.6238 109.427 50.8504C110.709 51.2207 111.213 51.4336 111.524 51.736C111.725 51.9322 111.806 52.1054 111.843 52.4141C111.918 53.0681 111.503 53.5644 110.697 53.7824L110.462 53.8462L109.903 53.8474L109.345 53.8492L109.036 53.7826C108.339 53.6325 107.759 53.3832 107.133 52.9649C106.931 52.8292 106.753 52.7208 106.741 52.7258C106.729 52.7305 106.376 53.1168 105.954 53.5872L105.19 54.44L105.255 54.5107C105.357 54.6223 105.857 54.9895 106.134 55.1565C106.936 55.6409 107.945 55.9781 108.977 56.1067C109.445 56.1648 110.674 56.1562 111.094 56.0914C113.203 55.7674 114.585 54.7528 114.999 53.2256L115.076 52.9404V52.3081V51.6759L115 51.3967C114.839 50.8056 114.654 50.4612 114.299 50.0909C113.774 49.5435 112.982 49.1058 111.903 48.7659C110.527 48.3323 109.984 48.1449 109.692 48.001C109.298 47.8078 109.101 47.6283 109.006 47.377L108.942 47.2064L108.955 46.9711C108.979 46.5181 109.218 46.2458 109.762 46.0528L109.992 45.9714L110.594 45.9729L111.197 45.9742L111.547 46.0567C111.738 46.1015 112.012 46.1788 112.15 46.2269C112.41 46.3174 113.035 46.6112 113.335 46.7835C113.426 46.8361 113.508 46.874 113.514 46.8669C113.521 46.8595 113.793 46.4537 114.119 45.9654L114.711 45.0775L114.588 44.9769C114.402 44.8256 113.938 44.5318 113.65 44.3832C113.086 44.0926 112.321 43.8477 111.624 43.7354C111.265 43.6775 109.922 43.6504 109.565 43.6937Z" fill="black"/>
<path d="M131.84 43.7072C130.252 43.9302 129 44.6865 128.164 45.9273C127.931 46.2721 127.617 46.9272 127.472 47.3681C126.958 48.9355 126.973 51.0646 127.509 52.6317C127.977 53.9963 128.861 55.0223 130.07 55.6015C130.818 55.96 131.516 56.1177 132.501 56.1506C134.472 56.2165 136.076 55.5311 137.126 54.1755C138.153 52.8501 138.588 50.8882 138.336 48.7209C138.156 47.1741 137.613 45.9708 136.689 45.0734C135.961 44.3668 135.116 43.9504 134.001 43.7499L133.634 43.6838L132.884 43.6749C132.354 43.6687 132.047 43.6782 131.84 43.7072ZM133.457 46.1153C134.018 46.2969 134.393 46.6478 134.679 47.2594C135.004 47.9513 135.167 49.2179 135.093 50.4647C135.013 51.823 134.774 52.6067 134.271 53.164C133.835 53.6471 133.166 53.8737 132.454 53.7794C131.358 53.6344 130.715 52.8346 130.488 51.3349C130.319 50.2146 130.383 48.6662 130.634 47.8005C130.843 47.0799 131.182 46.5828 131.66 46.2965C132.01 46.0875 132.334 46.0149 132.854 46.0291L133.222 46.0391L133.457 46.1153Z" fill="black"/>
<path d="M122.033 49.9117V55.8074H125.179V44.0161H123.606H122.033V49.9117Z" fill="black"/>
<path d="M117.769 52.4122C117.14 52.577 116.594 53.1213 116.429 53.7488C116.369 53.981 116.361 54.4603 116.414 54.6897C116.435 54.7778 116.506 54.9648 116.571 55.1001L116.69 55.3485L116.943 55.6013C117.36 56.0182 117.781 56.1799 118.372 56.15C118.878 56.1246 119.261 55.9572 119.61 55.6093C120.193 55.0286 120.342 54.137 119.98 53.396C119.828 53.0843 119.456 52.7108 119.151 52.5623C119.031 52.5037 118.851 52.4348 118.754 52.4103C118.531 52.3536 117.989 52.3547 117.769 52.4122Z" fill="black"/>
</svg>
