<svg width="173" height="100" viewBox="0 0 173 100" fill="none" xmlns="http://www.w3.org/2000/svg">
<path d="M45.4013 52.3586H41.6771C37.5432 52.3586 35.3163 47.508 38.0167 44.3723L47.0652 33.8521H61.3225L45.4013 52.3586Z" fill="#191B1F"/>
<path d="M45.4014 52.3589L43.0082 55.1618C40.3205 58.2973 42.5474 63.1479 46.6813 63.1479H53.6436L62.8713 52.3716H45.4014V52.3589Z" fill="#191B1F"/>
<path d="M71.2426 39.5474V52.5889C71.2426 53.92 71.6523 55.1103 72.433 55.9806C73.2263 56.8638 74.3271 57.3245 75.4918 57.3245C76.1701 57.3245 77.1683 57.1453 77.834 56.8381L76.5413 54.0481C76.1958 54.1505 75.8373 54.2271 75.4789 54.2271C75.159 54.2271 74.8645 54.0992 74.6726 53.8945C74.4807 53.6897 74.3144 53.4465 74.3144 53.0497V39.5474H71.2426Z" fill="#191B1F"/>
<path d="M129.987 57.0683H126.89V43.6683H129.987V44.7691C130.947 43.6683 132.829 43.0413 135.337 44.1804L134.262 46.5352C133.046 46.1641 131.92 46.3689 131.088 47.06C129.936 48.0198 129.987 49.2356 129.987 49.2356V57.0683Z" fill="#191B1F"/>
<path d="M95.2141 52.5885V46.7653H92.3728V43.9368H94.0366C94.7406 43.9368 95.2141 43.348 95.2141 42.7593V40.0717H98.3112V43.9368H102.803C103.418 43.9368 103.981 43.4377 103.981 42.7593V40.0717H107.078V43.9368H110.175V46.7653H107.078V53.062C107.078 53.7659 107.667 54.2394 108.243 54.2394C108.883 54.2394 109.318 54.0604 109.305 54.0604L110.61 56.8887C109.894 57.1576 108.934 57.3239 108.256 57.3239C107.091 57.3239 105.99 56.8631 105.197 55.9801C104.403 55.1099 104.006 53.9195 104.006 52.5885V46.7653H98.3369V53.062C98.3369 53.7659 98.9639 54.2394 99.5016 54.2394C100.141 54.2267 100.564 54.0604 100.564 54.0604C100.564 54.0604 101.882 56.8887 101.869 56.8887C101.127 57.1703 100.18 57.3368 99.5016 57.3368C98.3369 57.3368 97.2361 56.876 96.4428 55.9928C95.6109 55.1099 95.2141 53.9195 95.2141 52.5885Z" fill="#191B1F"/>
<path d="M84.7706 43.2838C80.9821 43.2838 78.0769 46.5219 78.0769 50.3101C78.0769 54.0985 80.9951 57.3365 84.7706 57.3365C87.3943 57.3365 88.9172 56.9654 90.8242 55.7494L89.6724 53.2795C88.2645 54.3673 86.6647 54.6232 84.7962 54.508C82.9788 54.3929 81.6094 53.2666 81.251 51.2829H91.349V49.7343C91.2721 46.2403 88.2772 43.2838 84.7706 43.2838ZM81.3022 48.9536C81.6734 47.2898 82.8765 45.9844 84.7706 45.9844C86.8312 45.9844 87.919 47.3921 88.1749 48.9536H81.3022Z" fill="#191B1F"/>
<path d="M118.008 43.2838C114.22 43.2838 111.314 46.5219 111.314 50.3101C111.314 54.0985 114.232 57.3365 118.008 57.3365C120.632 57.3365 122.155 56.9654 124.062 55.7494L122.91 53.2795C121.502 54.3673 119.902 54.6232 118.034 54.508C116.216 54.3929 114.847 53.2666 114.488 51.2829H124.574V49.7343C124.509 46.2403 121.515 43.2838 118.008 43.2838ZM114.54 48.9536C114.911 47.2898 116.011 45.9844 118.008 45.9844C120.171 45.9844 121.156 47.3921 121.412 48.9536H114.54Z" fill="#191B1F"/>
</svg>
