<svg width="173" height="100" viewBox="0 0 173 100" fill="none" xmlns="http://www.w3.org/2000/svg">
<path fill-rule="evenodd" clip-rule="evenodd" d="M64.6522 51.9031C63.5921 59.1051 56.9052 64.0833 49.7087 63.0224C42.5123 61.9615 37.5381 55.2695 38.5981 48.0675C39.6581 40.8655 46.3449 35.8874 53.5415 36.9483C60.738 38.0092 65.7122 44.7216 64.6522 51.9031Z" fill="#42C1CA"/>
<path fill-rule="evenodd" clip-rule="evenodd" d="M57.5169 42.0781C54.8463 40.3848 52.9502 44.098 52.9095 44.2204C52.4406 45.1387 52.0533 46.5666 51.8086 47.6277L48.3428 47.1176L48.2002 48.0562L51.625 48.5661C51.5231 49.0559 51.4824 49.3618 51.4824 49.3618L51.2989 50.382V50.4432L47.8943 49.9331L47.772 50.8921L51.1358 51.3817C50.2593 55.8295 49.6068 57.176 48.9341 57.9103C48.7913 58.0736 47.8536 58.7061 47.3847 57.5635C47.0585 56.7678 46.4265 56.8904 46.4265 56.8904C46.243 56.8699 45.4277 57.4003 46.7119 58.2164C49.3826 59.9098 51.2786 56.1965 51.3194 56.0742C51.7883 55.1561 52.4201 52.6466 52.6648 51.5857L56.1713 52.1162L56.3141 51.1777L52.8688 50.6881C52.9707 50.1984 53.0114 49.8923 53.0114 49.8923L53.1745 48.8517L53.1949 48.7905L56.5995 49.3006L56.7218 48.3621L53.358 47.8724C54.2347 43.4249 54.6423 43.1595 55.315 42.4252C55.4578 42.2619 56.3955 41.6294 56.8644 42.772C57.1906 43.5677 57.8226 43.4451 57.8226 43.4451C57.9857 43.4451 58.8217 42.9148 57.5169 42.0781Z" fill="white"/>
<path d="M79.045 48.5865H73.1534V43.7716H79.2286L79.3714 42.3027H71.4613V56.6047H73.1534V49.9739H79.045V48.5865ZM82.9797 42.3027H81.3693V44.1796H82.9797V42.3027ZM82.9797 46.0974H81.3693V56.6047H82.9797V46.0974ZM87.261 42.1599L85.6504 42.3434V52.1162C85.6504 55.605 85.7115 56.7882 88.3006 56.7882C88.4638 56.7882 88.8307 56.768 89.3811 56.6658L89.2792 55.4212C88.79 55.4621 88.6472 55.4826 88.4229 55.4826C87.3222 55.4826 87.261 54.7685 87.261 52.4834V42.1599ZM95.0894 56.8494C92.0926 56.8494 90.2782 54.7071 90.2782 51.3409C90.2782 48.1989 92.1538 45.9343 94.9059 45.8527C97.5154 45.8527 99.126 47.8317 99.126 50.9327C99.126 51.096 99.1055 51.4837 99.1055 51.6673H91.9296C91.9296 54.034 93.3157 55.4826 95.1506 55.4826C96.6389 55.4826 97.7396 54.9316 98.4735 54.4215L98.9629 55.6049C98.1067 56.3395 96.761 56.8494 95.0894 56.8494ZM91.9703 50.5247H97.5766C97.5766 48.3008 96.4553 47.1583 94.8854 47.1583C93.2953 47.1583 92.1538 48.4846 91.9703 50.5247ZM108.504 55.8701C107.811 56.523 106.71 56.8291 105.67 56.8291C102.408 56.8291 100.614 54.2584 100.614 51.3409C100.635 48.4436 102.51 45.8322 105.65 45.8322C106.873 45.8322 107.913 46.179 108.504 46.7503L108.096 47.8928C107.301 47.3625 106.424 47.1583 105.629 47.1583C103.713 47.1583 102.245 48.9333 102.245 51.3612C102.245 53.7688 103.652 55.5028 105.752 55.5028C106.689 55.5028 107.525 55.1356 108.116 54.7276L108.504 55.8701ZM117.841 51.3816C117.841 49.1577 117.025 47.1992 114.661 47.1992C112.418 47.1992 111.378 49.2803 111.378 51.4021C111.378 53.5239 112.418 55.5438 114.701 55.5438C116.964 55.5233 117.841 53.5034 117.841 51.3816ZM119.513 51.3612C119.513 54.2584 117.8 56.8494 114.661 56.8494C111.48 56.8494 109.727 54.4012 109.727 51.3816C109.727 48.3825 111.521 45.8527 114.701 45.8527C117.902 45.8527 119.513 48.3418 119.513 51.3612ZM123.366 42.3027H121.755V44.1796H123.366V42.3027ZM123.366 46.0974H121.755V56.6047H123.366V46.0974ZM130.99 45.8527C129.543 45.8527 128.075 46.5463 127.259 47.6481L127.117 46.0974H125.73L125.771 48.6476V56.6047H127.382V49.4434C127.626 48.5048 128.89 47.2399 130.644 47.2399C132.58 47.2399 132.703 48.6274 132.703 51.3612V56.6047H134.313V50.3207C134.313 47.3827 133.314 45.8527 130.99 45.8527Z" fill="#222222"/>
</svg>
