<svg width="173" height="100" viewBox="0 0 173 100" fill="none" xmlns="http://www.w3.org/2000/svg">
<path fill-rule="evenodd" clip-rule="evenodd" d="M71.4885 48.2952H73.8517C74.4366 48.2859 74.8752 48.1168 75.1678 47.788C75.4554 47.4828 75.5995 47.1071 75.5995 46.6609C75.5898 46.1254 75.4179 45.738 75.0829 45.4982C74.8188 45.2869 74.4366 45.1813 73.9366 45.1813H71.4885V48.2952ZM69.9247 43.7933H73.9508C74.8093 43.7933 75.5097 44.0189 76.0523 44.4698C76.7079 44.9816 77.05 45.7122 77.0784 46.6609C77.0595 48.0556 76.3942 49.0044 75.0829 49.507L77.4744 54.065H75.6135L73.4838 49.6761H71.4885V54.065H69.9247V43.7933Z" fill="#1F222C"/>
<path fill-rule="evenodd" clip-rule="evenodd" d="M84.7587 50.3872L83.2656 45.8993H83.2374L81.7442 50.3872H84.7587ZM85.2044 51.7681H81.2914L80.499 54.0645H78.8432L82.5932 43.7928H83.9024L87.6526 54.0645H86.0039L85.2044 51.7681Z" fill="#1F222C"/>
<path fill-rule="evenodd" clip-rule="evenodd" d="M89.3166 43.7928H90.7882L95.4582 51.0916H95.4865V43.7928H97.0503V54.0645H95.5716L90.9086 46.766H90.8801V54.0645H89.3166V43.7928Z" fill="#1F222C"/>
<path fill-rule="evenodd" clip-rule="evenodd" d="M102.887 52.5925C104.227 52.5738 104.906 52.0973 104.925 51.1625C104.934 50.3969 104.486 49.9367 103.581 49.7816C103.165 49.7252 102.71 49.6618 102.215 49.5914C101.328 49.4458 100.654 49.1194 100.191 48.612C99.7147 48.0907 99.4766 47.4567 99.4766 46.71C99.4766 45.813 99.7761 45.0896 100.375 44.54C100.955 43.9954 101.779 43.7181 102.845 43.7089C104.128 43.7369 105.243 44.0917 106.191 44.7724L105.321 46.0549C104.547 45.5476 103.696 45.2845 102.767 45.2658C102.286 45.2658 101.885 45.3853 101.564 45.6251C101.229 45.8739 101.057 46.2449 101.047 46.7382C101.047 47.034 101.163 47.3018 101.394 47.5411C101.625 47.7857 101.995 47.9545 102.505 48.0485C102.788 48.0957 103.175 48.1495 103.665 48.2107C104.632 48.3421 105.347 48.6872 105.809 49.2463C106.267 49.7956 106.496 50.4346 106.496 51.1625C106.444 53.1257 105.236 54.1214 102.873 54.1494C101.345 54.1494 100.031 53.6798 98.9316 52.7405L99.9577 51.571C100.778 52.2429 101.755 52.5833 102.887 52.5925Z" fill="#1F222C"/>
<path fill-rule="evenodd" clip-rule="evenodd" d="M115.66 51.1902C115.433 52.1437 115.002 52.8764 114.365 53.3883C113.709 53.8954 112.933 54.1492 112.037 54.1492C111.226 54.1304 110.549 53.9331 110.006 53.5574C109.454 53.1957 109.053 52.7777 108.803 52.3034C108.728 52.1483 108.66 52.0003 108.598 51.8594C108.542 51.714 108.494 51.5308 108.457 51.31C108.386 50.8966 108.351 50.103 108.351 48.9287C108.351 47.7358 108.386 46.9375 108.457 46.5335C108.532 46.1294 108.648 45.8032 108.803 45.5542C109.053 45.0798 109.454 44.6571 110.006 44.2862C110.549 43.9104 111.226 43.7179 112.037 43.7084C113.033 43.7179 113.844 44.0113 114.471 44.5891C115.099 45.1714 115.495 45.8922 115.66 46.7518H114.004C113.877 46.3386 113.646 45.9863 113.311 45.6951C112.961 45.4178 112.537 45.2748 112.037 45.2653C111.669 45.2748 111.353 45.3474 111.089 45.4837C110.82 45.6246 110.603 45.8008 110.438 46.0122C110.235 46.233 110.101 46.5169 110.035 46.8644C109.959 47.2309 109.922 47.9189 109.922 48.9287C109.922 49.9386 109.959 50.6219 110.035 50.9789C110.101 51.3359 110.235 51.6246 110.438 51.8454C110.603 52.0567 110.82 52.2282 111.089 52.3596C111.353 52.5147 111.669 52.5923 112.037 52.5923C112.915 52.5923 113.57 52.1248 114.004 51.1902H115.66Z" fill="#1F222C"/>
<path fill-rule="evenodd" clip-rule="evenodd" d="M117.93 43.7928H124.518V45.2653H119.494V48.196H123.782V49.5769H119.494V52.5923H124.518V54.0645H117.93V43.7928Z" fill="#1F222C"/>
<path fill-rule="evenodd" clip-rule="evenodd" d="M126.961 43.7928H128.433L133.103 51.0916H133.131V43.7928H134.695V54.0645H133.216L128.553 46.766H128.525V54.0645H126.961V43.7928Z" fill="#1F222C"/>
<path fill-rule="evenodd" clip-rule="evenodd" d="M138.825 52.5923H140.693C141.57 52.5923 142.207 52.2939 142.603 51.6976C142.778 51.4768 142.889 51.1972 142.936 50.8589C142.978 50.5257 142.999 49.9009 142.999 48.9851C142.999 48.0928 142.978 47.4541 142.936 47.0689C142.879 46.6839 142.745 46.3713 142.532 46.132C142.098 45.5355 141.485 45.2466 140.693 45.2653H138.825V52.5923ZM137.261 43.7928H140.87C142.266 43.8025 143.313 44.3801 144.011 45.5262C144.261 45.9112 144.419 46.3151 144.486 46.7378C144.537 47.1604 144.563 47.8907 144.563 48.9287C144.563 50.0326 144.523 50.8029 144.443 51.2396C144.405 51.4604 144.349 51.6575 144.273 51.8312C144.193 52.0003 144.096 52.1765 143.983 52.3596C143.681 52.8437 143.261 53.2427 142.724 53.5574C142.191 53.8956 141.537 54.0645 140.764 54.0645H137.261V43.7928Z" fill="#1F222C"/>
<path fill-rule="evenodd" clip-rule="evenodd" d="M31.0939 50.8305C31.0768 50.7319 31.0613 50.6332 31.0471 50.5345C30.9786 50.0591 30.5359 49.7295 30.0581 49.7971C29.5805 49.8654 29.2487 50.3064 29.3174 50.7821C29.3338 50.8956 29.3517 51.0094 29.3711 51.1229C29.6037 52.4814 30.0458 53.7843 30.6852 54.9952C30.8414 55.2912 31.1451 55.4608 31.4592 55.4608C31.5962 55.4608 31.7354 55.4285 31.8651 55.3604C32.2923 55.137 32.4564 54.6111 32.232 54.1856C31.6783 53.1372 31.2955 52.0083 31.0939 50.8305Z" fill="#3333FF"/>
<path fill-rule="evenodd" clip-rule="evenodd" d="M33.5392 41.2973C33.7667 41.2973 33.9942 41.2094 34.1652 41.034C35.0726 40.106 36.1213 39.347 37.2818 38.7785C37.7149 38.5665 37.8932 38.0449 37.6802 37.6139C37.4673 37.1826 36.9434 37.0051 36.5106 37.217C35.1702 37.8737 33.9599 38.7496 32.9129 39.8207C32.5764 40.165 32.584 40.7158 32.9297 41.051C33.0997 41.2154 33.3195 41.2973 33.5392 41.2973Z" fill="#3333FF"/>
<path fill-rule="evenodd" clip-rule="evenodd" d="M40.3632 37.785L40.4056 37.7778C41.6745 37.565 42.972 37.5678 44.2276 37.7854C44.2782 37.7942 44.3286 37.7985 44.3781 37.7985C44.7952 37.7985 45.1642 37.5004 45.2381 37.0775C45.3209 36.604 45.0025 36.1535 44.527 36.0712C43.069 35.8187 41.5608 35.8168 40.0894 36.0663L40.0611 36.0714C39.5999 36.1595 39.289 36.5969 39.3632 37.062C39.439 37.5368 39.8864 37.8601 40.3632 37.785Z" fill="#3333FF"/>
<path fill-rule="evenodd" clip-rule="evenodd" d="M31.8875 42.4759C31.4612 42.251 30.9323 42.4128 30.7065 42.8374C30.004 44.1586 29.5378 45.5742 29.3213 47.0458C29.2513 47.5211 29.5816 47.9629 30.0589 48.0327C30.1018 48.0387 30.1447 48.042 30.1869 48.042C30.6132 48.042 30.9866 47.7307 31.0501 47.2981C31.238 46.0238 31.6419 44.7969 32.2509 43.6519C32.4767 43.2271 32.3141 42.7008 31.8875 42.4759Z" fill="#3333FF"/>
<path fill-rule="evenodd" clip-rule="evenodd" d="M53.4889 47.0301C53.5052 47.126 53.5203 47.2212 53.5341 47.3168C53.597 47.7501 53.9706 48.0627 54.3978 48.0627C54.4393 48.0627 54.4813 48.0596 54.5238 48.0536C55.0014 47.9849 55.3327 47.5439 55.2638 47.0682C55.2478 46.9584 55.2304 46.8483 55.2114 46.738C54.9783 45.3756 54.5348 44.0697 53.8926 42.8559C53.6677 42.4309 53.1394 42.268 52.7122 42.4916C52.2853 42.7157 52.1215 43.2418 52.3464 43.6668C52.9025 44.7179 53.2868 45.8493 53.4889 47.0301Z" fill="#3333FF"/>
<path fill-rule="evenodd" clip-rule="evenodd" d="M50.424 56.8197C49.5174 57.7486 48.4696 58.5086 47.3093 59.0778C46.8765 59.2904 46.6985 59.812 46.912 60.2428C47.0641 60.55 47.3741 60.7284 47.6964 60.7284C47.8261 60.7284 47.9579 60.6995 48.082 60.6386C49.4218 59.9811 50.6312 59.1041 51.6773 58.0321C52.0136 57.6874 52.0057 57.1368 51.6597 56.8018C51.3135 56.4672 50.7603 56.475 50.424 56.8197Z" fill="#3333FF"/>
<path fill-rule="evenodd" clip-rule="evenodd" d="M48.0917 37.233C47.6595 37.0195 47.1352 37.196 46.921 37.6266C46.7069 38.057 46.8838 38.579 47.3161 38.7923C48.4799 39.366 49.529 40.1262 50.4349 41.0515C50.6062 41.2264 50.8335 41.3141 51.0607 41.3141C51.2807 41.3141 51.5009 41.232 51.6706 41.0672C52.0162 40.7318 52.0233 40.1809 51.6863 39.8371C50.6424 38.7705 49.4329 37.8944 48.0917 37.233Z" fill="#3333FF"/>
<path fill-rule="evenodd" clip-rule="evenodd" d="M44.1998 60.0796C42.9203 60.297 41.6103 60.2944 40.3462 60.0742C39.8707 59.9909 39.4181 60.3077 39.3349 60.7813C39.2518 61.2543 39.5695 61.7052 40.045 61.788C40.782 61.9166 41.5358 61.9816 42.285 61.9816C43.0199 61.9816 43.7629 61.9187 44.4835 61.7966L44.5169 61.7908C44.9923 61.7083 45.3021 61.2589 45.2192 60.7856C45.136 60.3123 44.6754 59.9975 44.1998 60.0796Z" fill="#3333FF"/>
<path fill-rule="evenodd" clip-rule="evenodd" d="M37.258 59.0644C36.0949 58.4897 35.0462 57.7288 34.1412 56.8026C33.8047 56.4584 33.2514 56.4508 32.9057 56.7858C32.5597 57.121 32.5521 57.6717 32.8889 58.0159C33.932 59.0836 35.1408 59.9606 36.4812 60.6231C36.6061 60.6847 36.7384 60.7138 36.8689 60.7138C37.1904 60.7138 37.4997 60.5365 37.6522 60.2305C37.8668 59.8001 37.6904 59.2781 37.258 59.0644Z" fill="#3333FF"/>
<path fill-rule="evenodd" clip-rule="evenodd" d="M54.5246 49.8182C54.047 49.7486 53.6035 50.0783 53.5339 50.5535C53.3473 51.8284 52.9442 53.0555 52.3363 54.2007C52.111 54.6255 52.2738 55.1521 52.7006 55.3765C52.8309 55.445 52.9705 55.4774 53.1082 55.4774C53.4216 55.4774 53.7247 55.3089 53.8814 55.0138C54.5828 53.6923 55.0477 52.2763 55.2631 50.8047C55.3327 50.3292 55.002 49.8876 54.5246 49.8182Z" fill="#3333FF"/>
<path fill-rule="evenodd" clip-rule="evenodd" d="M36.9809 43.1602C38.2125 42.033 39.7427 41.3383 41.4058 41.1504C41.9931 41.0843 42.5914 41.0841 43.1724 41.1491C43.6523 41.2043 44.0845 40.8598 44.1386 40.3824C44.1929 39.905 43.848 39.4744 43.3684 39.4203C42.6577 39.3404 41.9265 39.3408 41.2092 39.4218C39.1755 39.651 37.3045 40.5009 35.7984 41.879C35.443 42.2041 35.4197 42.7545 35.7463 43.1083C35.9186 43.295 36.1539 43.3896 36.3898 43.3896C36.6011 43.3896 36.8129 43.3138 36.9809 43.1602Z" fill="#3333FF"/>
<path fill-rule="evenodd" clip-rule="evenodd" d="M42.285 58.5007C42.6465 58.5007 43.0128 58.48 43.3745 58.4393L43.393 58.4372C43.8723 58.3816 44.2155 57.9497 44.1597 57.4725C44.1039 56.9953 43.6713 56.6545 43.1907 56.709L43.1769 56.7105C42.8811 56.7439 42.581 56.7609 42.285 56.7609C40.324 56.7609 38.4409 56.0295 36.9824 54.7016C36.6266 54.3772 36.0738 54.4022 35.748 54.7563C35.4223 55.1109 35.4471 55.6612 35.8032 55.9854C37.5844 57.6076 39.8864 58.5007 42.285 58.5007Z" fill="#3333FF"/>
<path fill-rule="evenodd" clip-rule="evenodd" d="M46.1571 42.1161C48.143 43.2366 49.542 45.1472 49.9955 47.358C50.0799 47.7699 50.444 48.054 50.8505 48.054C50.9084 48.054 50.9673 48.0482 51.0263 48.0361C51.4992 47.9401 51.8042 47.4806 51.7075 47.0098C51.1532 44.3062 49.4442 41.9709 47.0189 40.6023C46.599 40.3656 46.0658 40.5123 45.8278 40.9302C45.5899 41.3481 45.7373 41.879 46.1571 42.1161Z" fill="#3333FF"/>
<path fill-rule="evenodd" clip-rule="evenodd" d="M34.7023 44.5387C34.2633 44.3392 33.745 44.5318 33.5444 44.9687C32.9705 46.2199 32.6794 47.5506 32.6794 48.924C32.6794 49.2838 32.7001 49.6485 32.7411 50.008C32.8555 51.0124 33.1256 51.9848 33.544 52.898C33.6907 53.2179 34.0078 53.4069 34.3395 53.4069C34.4608 53.4069 34.5843 53.3817 34.7017 53.3282C35.1407 53.1288 35.3342 52.6126 35.1338 52.1755C34.7919 51.4297 34.5711 50.6343 34.4776 49.812C34.444 49.5173 34.427 49.2185 34.427 48.924C34.427 47.8018 34.6648 46.7143 35.1341 45.6915C35.3346 45.2544 35.1414 44.7384 34.7023 44.5387Z" fill="#3333FF"/>
<path fill-rule="evenodd" clip-rule="evenodd" d="M51.7122 50.8305C51.8083 50.3598 51.5028 49.9005 51.03 49.8049C50.5573 49.709 50.0958 50.0132 49.9998 50.4841C49.5471 52.7009 48.1531 54.6161 46.1748 55.7387C45.7556 55.9765 45.6095 56.508 45.8482 56.9253C46.0096 57.2068 46.3045 57.3647 46.6083 57.3647C46.755 57.3647 46.9036 57.3279 47.0402 57.2504C49.4565 55.8794 51.1594 53.5396 51.7122 50.8305Z" fill="#3333FF"/>
<path fill-rule="evenodd" clip-rule="evenodd" d="M42.1896 53.2778C39.7813 53.2218 37.8676 51.2256 37.9236 48.8277C37.9508 47.6685 38.4314 46.5877 39.2767 45.7843C40.1219 44.981 41.2274 44.5527 42.3931 44.5805C43.5575 44.6074 44.6431 45.0859 45.4499 45.9276C46.2567 46.769 46.6862 47.871 46.6591 49.0304C46.6028 51.4284 44.5989 53.3375 42.1896 53.2778ZM48.4062 49.0709C48.4441 47.447 47.8431 45.9039 46.7142 44.7261C45.5849 43.5482 44.0649 42.8788 42.4339 42.8411C40.802 42.8054 39.253 43.4015 38.0701 44.5256C36.887 45.6499 36.2146 47.1633 36.1765 48.7872C36.0981 52.1442 38.7772 54.939 42.1488 55.0172C42.1975 55.0185 42.246 55.0189 42.2945 55.0189C43.8721 55.0189 45.365 54.4233 46.5128 53.3325C47.6957 52.2082 48.3681 50.695 48.4062 49.0709Z" fill="#3333FF"/>
<path fill-rule="evenodd" clip-rule="evenodd" d="M63.4962 45.1809H60.673V43.7928H67.8904V45.1809H65.0672V54.0645H63.4962V45.1809Z" fill="#1F222C"/>
</svg>
