<svg width="173" height="100" viewBox="0 0 173 100" fill="none" xmlns="http://www.w3.org/2000/svg">
<path d="M60.2926 34.8047C59.1157 34.8019 58.1594 35.7457 58.1566 36.9129C58.1536 38.0801 59.1053 39.0287 60.282 39.0315C61.4589 39.0345 62.4154 38.0905 62.4182 36.9235C62.4212 35.7563 61.4695 34.8077 60.2926 34.8047ZM52.6358 44.4543C53.3583 43.4245 53.7465 42.1668 53.7498 40.8279C53.7562 38.2854 51.9507 34.7125 47.2321 34.7125H41.0441C40.3115 34.7125 39.7171 34.9922 39.4786 35.2134C39.0923 35.5505 38.7892 36.0486 38.7877 36.688C38.7862 37.2695 38.7892 53.8054 38.7877 54.3869C38.7843 55.7522 39.9278 56.3302 41.0155 56.3302C43.0207 56.3356 47.5219 56.3277 48.5269 56.3302C52.7122 56.3404 55.1475 52.9023 55.155 49.8482C55.1617 47.1887 54.0294 45.5476 52.6358 44.4543ZM62.3984 42.3107C62.3984 40.9462 61.349 40.2486 60.2493 40.2486C59.2042 40.2486 58.1661 40.983 58.1661 42.2336V54.2434C58.1661 56.9352 62.3984 57.0487 62.3984 54.2445V42.3107ZM73.6893 52.091C72.3758 52.0908 71.3167 51.0003 71.32 49.6888C71.3215 49.0774 71.3096 46.7604 71.32 44.1679C71.8409 44.1692 72.2502 44.1675 72.4452 44.1679C75.1551 44.1746 75.0842 40.1202 72.5229 40.114C72.3646 40.1136 71.9036 40.1155 71.32 40.114C71.3251 38.7897 71.3191 37.2147 71.32 36.8761C71.3232 35.5839 70.2482 34.8325 69.1866 34.8325C68.1465 34.8325 67.106 35.613 67.1027 36.9332C67.1014 37.4114 67.1032 38.9315 67.1027 40.114C66.8748 40.1136 66.7063 40.1142 66.6217 40.114C64.0604 40.1077 63.9693 44.1613 66.6792 44.1679C66.7731 44.1682 66.9192 44.1675 67.1027 44.1679C67.1021 46.889 67.1038 49.3094 67.1027 49.8141C67.0924 53.9657 70.628 56.324 73.7283 56.324C75.0118 56.324 75.8533 55.3375 75.8533 54.2007C75.8533 53.1785 75.1372 52.091 73.6893 52.091ZM111.352 40.0916C106.831 40.0806 103.156 43.7076 103.145 48.1928C103.133 52.6783 106.79 56.3234 111.312 56.3343C115.834 56.3455 119.509 52.7183 119.52 48.2331C119.531 43.7479 115.874 40.1028 111.352 40.0916ZM132.517 39.0315C133.694 39.0345 134.65 38.0905 134.654 36.9233C134.656 35.7563 133.705 34.8077 132.528 34.8047C131.351 34.8019 130.395 35.7457 130.392 36.9129C130.389 38.0801 131.34 39.0287 132.517 39.0315ZM93.6531 40.2771C91.7854 40.2771 90.1298 40.9061 88.9719 41.9469C87.731 40.8529 86.1396 40.2771 84.7527 40.2771C83.6016 40.2771 82.5316 40.5162 81.6085 40.9428C81.2101 40.5128 80.6362 40.2913 80.0576 40.2932C78.986 40.2971 77.8951 41.0554 77.8951 42.3952C77.8951 42.9984 77.8966 53.6899 77.8951 54.2931C77.8884 56.9287 82.146 57.0224 82.146 54.2339V46.6738C82.146 45.2899 83.1503 44.3526 84.501 44.3526C85.8514 44.3526 86.86 45.356 86.8566 46.7169C86.8531 48.0778 86.8598 53.0363 86.8566 54.2895C86.8501 56.9253 91.0757 57.019 91.0826 54.2305C91.0874 52.2481 91.0826 46.9332 91.0826 46.4125C91.0826 45.1981 92.1378 44.3526 93.4015 44.3526C94.7521 44.3526 95.765 45.356 95.7616 46.7169C95.7581 48.0778 95.756 53.0363 95.7529 54.2895C95.7463 56.9253 99.9769 57.019 99.9838 54.2305C99.9887 52.2481 99.9812 47.749 99.9838 46.6896C99.9941 42.5669 96.4193 40.2771 93.6531 40.2771ZM124.669 34.797C123.487 34.7942 122.525 35.7429 122.522 36.9164C122.519 38.0896 123.476 39.0433 124.659 39.0461C125.842 39.0489 126.803 38.1002 126.806 36.9269C126.809 35.7535 125.852 34.8 124.669 34.797ZM134.631 42.3107C134.634 40.9462 133.584 40.2486 132.485 40.2486C131.44 40.2486 130.426 40.983 130.422 42.2336C130.421 42.815 130.422 53.6619 130.422 54.2434C130.422 56.9352 134.631 57.0487 134.631 54.2445C134.631 53.4902 134.629 43.0649 134.631 42.3107ZM122.581 42.3947V55.6163C122.581 56.829 121.735 57.9044 120.299 57.9044C118.806 57.9044 118.02 58.9598 118.02 59.9988C118.02 61.1339 118.954 62.1029 120.312 62.1029C123.792 62.1029 126.775 59.6461 126.775 55.6529V42.407C126.775 39.5871 122.581 39.5709 122.581 42.3947ZM111.322 52.1927C109.107 52.1873 107.315 50.4012 107.32 48.2032C107.326 46.0054 109.126 44.2281 111.342 44.2334C113.558 44.2388 115.35 46.025 115.345 48.223C115.339 50.4208 113.538 52.1981 111.322 52.1927ZM42.8744 38.7482C44.51 38.7482 46.3855 38.7473 47.258 38.7473C48.841 38.7473 49.4698 40.0819 49.4679 40.8169C49.4642 42.3228 48.2399 43.0186 47.2916 43.0186C47.0154 43.0186 44.3297 43.0193 42.8744 43.0193C42.8785 41.3885 42.8716 39.8742 42.8744 38.7482ZM48.4997 52.3476C47.5852 52.3452 44.874 52.353 42.8744 52.3476C42.8779 50.9852 42.8695 49.0649 42.8744 47.0435C44.2764 47.0457 48.1352 47.0431 48.5023 47.0431C49.8531 47.0431 51.2027 48.0284 51.1984 49.7816C51.195 51.1782 50.0325 52.3515 48.4997 52.3476Z" fill="#273440"/>
<path fill-rule="evenodd" clip-rule="evenodd" d="M132.807 61.8392H125.749C126.815 60.9089 127.629 59.7006 128.074 58.3287H132.87V58.3311C133.831 58.3488 134.605 59.1273 134.605 60.0851C134.605 61.0539 133.813 61.8394 132.837 61.8394C132.827 61.8394 132.817 61.8392 132.807 61.8392ZM116.287 59.9919C116.287 60.6621 116.462 61.2915 116.767 61.8392H102.819L105.44 58.3287H116.671C116.425 58.8315 116.287 59.3955 116.287 59.9919Z" fill="#E84939"/>
<path fill-rule="evenodd" clip-rule="evenodd" d="M40.5868 61.8392H58.9317H57.6566L60.2768 58.3287H61.552H40.5219V58.3311C39.5622 58.3505 38.7901 59.1284 38.7901 60.0851C38.7901 61.0419 39.5622 61.8196 40.5219 61.8389L40.5303 61.8392C40.5396 61.8392 40.5491 61.8394 40.5586 61.8394C40.568 61.8394 40.5773 61.8392 40.5868 61.8392Z" fill="#3B9FE4"/>
<path fill-rule="evenodd" clip-rule="evenodd" d="M80.2422 61.8392H60.2116L62.8318 58.3287H82.8601H81.5826L78.9624 61.8392H80.2422Z" fill="#2ACC70"/>
<path fill-rule="evenodd" clip-rule="evenodd" d="M81.5173 61.8392H102.819L105.44 58.3287H84.1376L81.5173 61.8392Z" fill="#F1C540"/>
</svg>
