<svg width="173" height="100" viewBox="0 0 173 100" fill="none" xmlns="http://www.w3.org/2000/svg">
<path d="M81.9097 58.5692H78.5215V57.166C77.7148 58.1229 76.1981 58.9201 74.4234 58.9201C71.0029 58.9201 69.0668 56.6559 69.0668 53.3714V43.6452H72.4549V52.7973C72.4549 54.6468 73.3586 55.8587 75.327 55.8587C76.7791 55.8587 78.4892 54.6468 78.4892 52.8292V43.6452H81.8776V58.5692H81.9097ZM85.4916 43.6452H88.88V45.0483C89.6867 44.0917 91.2032 43.2945 92.9781 43.2945C96.3986 43.2945 98.3348 45.5584 98.3348 48.843V58.5692H94.9463V49.4171C94.9463 47.5676 94.0429 46.3557 92.0745 46.3557C90.6224 46.3557 88.9121 47.5676 88.9121 49.3852V58.5692H85.4916V43.6452ZM65.5172 43.6452V55.444C65.5172 57.9633 64.9686 59.7492 63.6134 60.8334C62.2258 61.9494 59.967 62.3003 57.5145 62.1728V59.1114C60.7091 59.3027 61.9354 58.5055 61.9354 55.3165V43.6452H65.5172ZM63.7102 41.8913C64.815 41.8913 65.7109 41.0062 65.7109 39.914C65.7109 38.8221 64.815 37.937 63.7102 37.937C62.6053 37.937 61.7094 38.8221 61.7094 39.914C61.7094 41.0062 62.6053 41.8913 63.7102 41.8913ZM114.469 53.9454C113.953 56.911 111.758 58.9201 108.112 58.9201C103.885 58.9201 100.981 55.7631 100.981 51.1391C100.981 46.6747 103.949 43.2945 108.048 43.2945C112.307 43.2945 114.598 46.2919 114.598 50.6609V51.8725H104.304C104.401 54.4874 105.95 56.0819 108.112 56.0819C109.758 56.0819 110.984 55.3803 111.339 53.9454H114.469ZM104.401 49.4171H111.242C111.21 47.5995 110.145 46.1325 108.08 46.1325C106.208 46.1325 104.821 47.2804 104.401 49.4171Z" fill="#222222"/>
</svg>
